# MagicaVoxel @ Ephtracy

# group
o 

# material
mtllib LightRework.mtl
usemtl palette

# normals
vn -1 0 0
vn 1 0 0
vn 0 0 1
vn 0 0 -1
vn 0 -1 0
vn 0 1 0

# texcoords
vt 0.00585938 0.5
vt 0.974609 0.5
vt 0.982422 0.5

# verts
v -1.6 -0.7 1.6
v -1.6 -0.7 -1.6
v -1.6 -0.4 1.6
v -1.6 -0.4 -1.6
v -1.5 -0.4 1.5
v -1.5 -0.4 -1.5
v -1.5 -0.3 1.5
v -1.5 -0.3 -1.5
v -1.4 -0.3 1.4
v -1.4 -0.3 -1.4
v -1.4 -0.2 1.4
v -1.4 -0.2 -1.4
v -1.3 -0.2 1.3
v -1.3 -0.2 -1.3
v -1.3 -0.1 1.3
v -1.3 -0.1 -1.3
v -1.2 -0.1 1.2
v -1.2 -0.1 -1.2
v -1.2 0 1.2
v -1.2 0 -1.2
v -1.1 0 1.1
v -1.1 0 -1.1
v -1.1 0.1 1.1
v -1.1 0.1 -1.1
v -1 0.1 1
v -1 0.1 -1
v -1 0.2 1
v -1 0.2 -1
v -0.9 0.2 0.9
v -0.9 0.2 -0.9
v -0.9 0.3 0.9
v -0.9 0.3 -0.9
v -0.8 0.3 0.8
v -0.8 0.3 -0.8
v -0.8 0.4 0.8
v -0.8 0.4 -0.8
v -0.7 0.4 0.7
v -0.7 0.4 -0.7
v -0.7 0.5 0.7
v -0.7 0.5 -0.7
v -0.4 -0.1 0.4
v -0.4 -0.1 -0.4
v -0.4 0.1 0.4
v -0.4 0.1 -0.4
v -0.4 0.5 0.1
v -0.4 0.5 -0.1
v -0.4 1.7 0.1
v -0.4 1.7 -0.1
v -0.3 -0.2 0.3
v -0.3 -0.2 -0.3
v -0.3 -0.1 0.3
v -0.3 -0.1 -0.3
v -0.3 0.5 0.2
v -0.3 0.5 0.1
v -0.3 0.5 -0.1
v -0.3 0.5 -0.2
v -0.3 1.7 0.2
v -0.3 1.7 0.1
v -0.3 1.7 -0.1
v -0.3 1.7 -0.2
v -0.2 -0.3 0.2
v -0.2 -0.3 -0.2
v -0.2 -0.2 0.2
v -0.2 -0.2 -0.2
v -0.2 0.5 0.3
v -0.2 0.5 0.2
v -0.2 0.5 -0.2
v -0.2 0.5 -0.3
v -0.2 1.7 0.3
v -0.2 1.7 0.2
v -0.2 1.7 -0.2
v -0.2 1.7 -0.3
v -0.1 0.5 0.4
v -0.1 0.5 0.3
v -0.1 0.5 -0.3
v -0.1 0.5 -0.4
v -0.1 1.7 0.4
v -0.1 1.7 0.3
v -0.1 1.7 -0.3
v -0.1 1.7 -0.4
v 0.6 0 0.6
v 0.6 0 -0.6
v 0.6 0.1 0.6
v 0.6 0.1 -0.6
v 0.7 -0.1 0.7
v 0.7 -0.1 -0.7
v 0.7 0 0.7
v 0.7 0 -0.7
v 0.8 -0.2 0.8
v 0.8 -0.2 -0.8
v 0.8 -0.1 0.8
v 0.8 -0.1 -0.8
v 0.9 -0.3 0.9
v 0.9 -0.3 -0.9
v 0.9 -0.2 0.9
v 0.9 -0.2 -0.9
v 1 -0.4 1
v 1 -0.4 -1
v 1 -0.3 1
v 1 -0.3 -1
v 1.1 -0.5 1.1
v 1.1 -0.5 -1.1
v 1.1 -0.4 1.1
v 1.1 -0.4 -1.1
v 1.2 -0.6 1.2
v 1.2 -0.6 -1.2
v 1.2 -0.5 1.2
v 1.2 -0.5 -1.2
v 1.3 -0.7 1.3
v 1.3 -0.7 -1.3
v 1.3 -0.6 1.3
v 1.3 -0.6 -1.3
v -1.3 -0.7 1.3
v -1.3 -0.7 -1.3
v -1.3 -0.6 1.3
v -1.3 -0.6 -1.3
v -1.2 -0.6 1.2
v -1.2 -0.6 -1.2
v -1.2 -0.5 1.2
v -1.2 -0.5 -1.2
v -1.1 -0.5 1.1
v -1.1 -0.5 -1.1
v -1.1 -0.4 1.1
v -1.1 -0.4 -1.1
v -1 -0.4 1
v -1 -0.4 -1
v -1 -0.3 1
v -1 -0.3 -1
v -0.9 -0.3 0.9
v -0.9 -0.3 -0.9
v -0.9 -0.2 0.9
v -0.9 -0.2 -0.9
v -0.8 -0.2 0.8
v -0.8 -0.2 -0.8
v -0.8 -0.1 0.8
v -0.8 -0.1 -0.8
v -0.7 -0.1 0.7
v -0.7 -0.1 -0.7
v -0.7 0 0.7
v -0.7 0 -0.7
v -0.6 0 0.6
v -0.6 0 -0.6
v -0.6 0.1 0.6
v -0.6 0.1 -0.6
v 0.1 0.5 0.4
v 0.1 0.5 0.3
v 0.1 0.5 -0.3
v 0.1 0.5 -0.4
v 0.1 1.7 0.4
v 0.1 1.7 0.3
v 0.1 1.7 -0.3
v 0.1 1.7 -0.4
v 0.2 -0.3 0.2
v 0.2 -0.3 -0.2
v 0.2 -0.2 0.2
v 0.2 -0.2 -0.2
v 0.2 0.5 -0.2
v 0.2 0.5 -0.3
v 0.2 1.7 -0.2
v 0.2 1.7 -0.3
v 0.3 -0.2 0.3
v 0.3 -0.2 -0.3
v 0.3 -0.1 0.3
v 0.3 -0.1 -0.3
v 0.3 0.5 0.3
v 0.3 0.5 0.2
v 0.3 0.5 -0.1
v 0.3 0.5 -0.2
v 0.3 1.7 0.3
v 0.3 1.7 0.2
v 0.3 1.7 -0.1
v 0.3 1.7 -0.2
v 0.4 -0.1 0.4
v 0.4 -0.1 -0.4
v 0.4 0.1 0.4
v 0.4 0.1 -0.4
v 0.4 0.5 0.2
v 0.4 0.5 -0.1
v 0.4 1.7 0.2
v 0.4 1.7 -0.1
v 0.7 0.4 0.7
v 0.7 0.4 -0.7
v 0.7 0.5 0.7
v 0.7 0.5 -0.7
v 0.8 0.3 0.8
v 0.8 0.3 -0.8
v 0.8 0.4 0.8
v 0.8 0.4 -0.8
v 0.9 0.2 0.9
v 0.9 0.2 -0.9
v 0.9 0.3 0.9
v 0.9 0.3 -0.9
v 1 0.1 1
v 1 0.1 -1
v 1 0.2 1
v 1 0.2 -1
v 1.1 0 1.1
v 1.1 0 -1.1
v 1.1 0.1 1.1
v 1.1 0.1 -1.1
v 1.2 -0.1 1.2
v 1.2 -0.1 -1.2
v 1.2 0 1.2
v 1.2 0 -1.2
v 1.3 -0.2 1.3
v 1.3 -0.2 -1.3
v 1.3 -0.1 1.3
v 1.3 -0.1 -1.3
v 1.4 -0.3 1.4
v 1.4 -0.3 -1.4
v 1.4 -0.2 1.4
v 1.4 -0.2 -1.4
v 1.5 -0.4 1.5
v 1.5 -0.4 -1.5
v 1.5 -0.3 1.5
v 1.5 -0.3 -1.5
v 1.6 -0.7 1.6
v 1.6 -0.7 -1.6
v 1.6 -0.4 1.6
v 1.6 -0.4 -1.6
v -1.6 -0.7 1.6
v -1.6 -0.4 1.6
v 1.6 -0.7 1.6
v 1.6 -0.4 1.6
v -1.5 -0.4 1.5
v -1.5 -0.3 1.5
v 1.5 -0.4 1.5
v 1.5 -0.3 1.5
v -1.4 -0.3 1.4
v -1.4 -0.2 1.4
v 1.4 -0.3 1.4
v 1.4 -0.2 1.4
v -1.3 -0.2 1.3
v -1.3 -0.1 1.3
v 1.3 -0.2 1.3
v 1.3 -0.1 1.3
v -1.2 -0.1 1.2
v -1.2 0 1.2
v 1.2 -0.1 1.2
v 1.2 0 1.2
v -1.1 0 1.1
v -1.1 0.1 1.1
v 1.1 0 1.1
v 1.1 0.1 1.1
v -1 0.1 1
v -1 0.2 1
v 1 0.1 1
v 1 0.2 1
v -0.9 0.2 0.9
v -0.9 0.3 0.9
v 0.9 0.2 0.9
v 0.9 0.3 0.9
v -0.8 0.3 0.8
v -0.8 0.4 0.8
v 0.8 0.3 0.8
v 0.8 0.4 0.8
v -0.7 0.4 0.7
v -0.7 0.5 0.7
v 0.7 0.4 0.7
v 0.7 0.5 0.7
v -0.4 -0.1 0.4
v -0.4 0.1 0.4
v -0.1 0.5 0.4
v -0.1 1.7 0.4
v 0.1 0.5 0.4
v 0.1 1.7 0.4
v 0.4 -0.1 0.4
v 0.4 0.1 0.4
v -0.3 -0.2 0.3
v -0.3 -0.1 0.3
v -0.2 0.5 0.3
v -0.2 1.7 0.3
v -0.1 0.5 0.3
v -0.1 1.7 0.3
v 0.1 0.5 0.3
v 0.1 1.7 0.3
v 0.3 -0.2 0.3
v 0.3 -0.1 0.3
v 0.3 0.5 0.3
v 0.3 1.7 0.3
v -0.3 0.5 0.2
v -0.3 1.7 0.2
v -0.2 -0.3 0.2
v -0.2 -0.2 0.2
v -0.2 0.5 0.2
v -0.2 1.7 0.2
v 0.2 -0.3 0.2
v 0.2 -0.2 0.2
v 0.3 0.5 0.2
v 0.3 1.7 0.2
v 0.4 0.5 0.2
v 0.4 1.7 0.2
v -0.4 0.5 0.1
v -0.4 1.7 0.1
v -0.3 0.5 0.1
v -0.3 1.7 0.1
v -0.6 0 -0.6
v -0.6 0.1 -0.6
v 0.6 0 -0.6
v 0.6 0.1 -0.6
v -0.7 -0.1 -0.7
v -0.7 0 -0.7
v 0.7 -0.1 -0.7
v 0.7 0 -0.7
v -0.8 -0.2 -0.8
v -0.8 -0.1 -0.8
v 0.8 -0.2 -0.8
v 0.8 -0.1 -0.8
v -0.9 -0.3 -0.9
v -0.9 -0.2 -0.9
v 0.9 -0.3 -0.9
v 0.9 -0.2 -0.9
v -1 -0.4 -1
v -1 -0.3 -1
v 1 -0.4 -1
v 1 -0.3 -1
v -1.1 -0.5 -1.1
v -1.1 -0.4 -1.1
v 1.1 -0.5 -1.1
v 1.1 -0.4 -1.1
v -1.2 -0.6 -1.2
v -1.2 -0.5 -1.2
v 1.2 -0.6 -1.2
v 1.2 -0.5 -1.2
v -1.3 -0.7 -1.3
v -1.3 -0.6 -1.3
v 1.3 -0.7 -1.3
v 1.3 -0.6 -1.3
v -1.3 -0.7 1.3
v -1.3 -0.6 1.3
v 1.3 -0.7 1.3
v 1.3 -0.6 1.3
v -1.2 -0.6 1.2
v -1.2 -0.5 1.2
v 1.2 -0.6 1.2
v 1.2 -0.5 1.2
v -1.1 -0.5 1.1
v -1.1 -0.4 1.1
v 1.1 -0.5 1.1
v 1.1 -0.4 1.1
v -1 -0.4 1
v -1 -0.3 1
v 1 -0.4 1
v 1 -0.3 1
v -0.9 -0.3 0.9
v -0.9 -0.2 0.9
v 0.9 -0.3 0.9
v 0.9 -0.2 0.9
v -0.8 -0.2 0.8
v -0.8 -0.1 0.8
v 0.8 -0.2 0.8
v 0.8 -0.1 0.8
v -0.7 -0.1 0.7
v -0.7 0 0.7
v 0.7 -0.1 0.7
v 0.7 0 0.7
v -0.6 0 0.6
v -0.6 0.1 0.6
v 0.6 0 0.6
v 0.6 0.1 0.6
v -0.4 0.5 -0.1
v -0.4 1.7 -0.1
v -0.3 0.5 -0.1
v -0.3 1.7 -0.1
v 0.3 0.5 -0.1
v 0.3 1.7 -0.1
v 0.4 0.5 -0.1
v 0.4 1.7 -0.1
v -0.3 0.5 -0.2
v -0.3 1.7 -0.2
v -0.2 -0.3 -0.2
v -0.2 -0.2 -0.2
v -0.2 0.5 -0.2
v -0.2 1.7 -0.2
v 0.2 -0.3 -0.2
v 0.2 -0.2 -0.2
v 0.2 0.5 -0.2
v 0.2 1.7 -0.2
v 0.3 0.5 -0.2
v 0.3 1.7 -0.2
v -0.3 -0.2 -0.3
v -0.3 -0.1 -0.3
v -0.2 0.5 -0.3
v -0.2 1.7 -0.3
v -0.1 0.5 -0.3
v -0.1 1.7 -0.3
v 0.1 0.5 -0.3
v 0.1 1.7 -0.3
v 0.2 0.5 -0.3
v 0.2 1.7 -0.3
v 0.3 -0.2 -0.3
v 0.3 -0.1 -0.3
v -0.4 -0.1 -0.4
v -0.4 0.1 -0.4
v -0.1 0.5 -0.4
v -0.1 1.7 -0.4
v 0.1 0.5 -0.4
v 0.1 1.7 -0.4
v 0.4 -0.1 -0.4
v 0.4 0.1 -0.4
v -0.7 0.4 -0.7
v -0.7 0.5 -0.7
v 0.7 0.4 -0.7
v 0.7 0.5 -0.7
v -0.8 0.3 -0.8
v -0.8 0.4 -0.8
v 0.8 0.3 -0.8
v 0.8 0.4 -0.8
v -0.9 0.2 -0.9
v -0.9 0.3 -0.9
v 0.9 0.2 -0.9
v 0.9 0.3 -0.9
v -1 0.1 -1
v -1 0.2 -1
v 1 0.1 -1
v 1 0.2 -1
v -1.1 0 -1.1
v -1.1 0.1 -1.1
v 1.1 0 -1.1
v 1.1 0.1 -1.1
v -1.2 -0.1 -1.2
v -1.2 0 -1.2
v 1.2 -0.1 -1.2
v 1.2 0 -1.2
v -1.3 -0.2 -1.3
v -1.3 -0.1 -1.3
v 1.3 -0.2 -1.3
v 1.3 -0.1 -1.3
v -1.4 -0.3 -1.4
v -1.4 -0.2 -1.4
v 1.4 -0.3 -1.4
v 1.4 -0.2 -1.4
v -1.5 -0.4 -1.5
v -1.5 -0.3 -1.5
v 1.5 -0.4 -1.5
v 1.5 -0.3 -1.5
v -1.6 -0.7 -1.6
v -1.6 -0.4 -1.6
v 1.6 -0.7 -1.6
v 1.6 -0.4 -1.6
v -1.6 -0.7 1.6
v 1.6 -0.7 1.6
v -1.3 -0.7 1.3
v 1.3 -0.7 1.3
v -1.3 -0.7 -1.3
v 1.3 -0.7 -1.3
v -1.6 -0.7 -1.6
v 1.6 -0.7 -1.6
v -1.3 -0.6 1.3
v 1.3 -0.6 1.3
v -1.2 -0.6 1.2
v 1.2 -0.6 1.2
v -1.2 -0.6 -1.2
v 1.2 -0.6 -1.2
v -1.3 -0.6 -1.3
v 1.3 -0.6 -1.3
v -1.2 -0.5 1.2
v 1.2 -0.5 1.2
v -1.1 -0.5 1.1
v 1.1 -0.5 1.1
v -1.1 -0.5 -1.1
v 1.1 -0.5 -1.1
v -1.2 -0.5 -1.2
v 1.2 -0.5 -1.2
v -1.1 -0.4 1.1
v 1.1 -0.4 1.1
v -1 -0.4 1
v 1 -0.4 1
v -1 -0.4 -1
v 1 -0.4 -1
v -1.1 -0.4 -1.1
v 1.1 -0.4 -1.1
v -1 -0.3 1
v 1 -0.3 1
v -0.9 -0.3 0.9
v 0.9 -0.3 0.9
v -0.2 -0.3 0.2
v 0.2 -0.3 0.2
v -0.2 -0.3 -0.2
v 0.2 -0.3 -0.2
v -0.9 -0.3 -0.9
v 0.9 -0.3 -0.9
v -1 -0.3 -1
v 1 -0.3 -1
v -0.9 -0.2 0.9
v 0.9 -0.2 0.9
v -0.8 -0.2 0.8
v 0.8 -0.2 0.8
v -0.3 -0.2 0.3
v 0.3 -0.2 0.3
v -0.2 -0.2 0.2
v 0.2 -0.2 0.2
v -0.2 -0.2 -0.2
v 0.2 -0.2 -0.2
v -0.3 -0.2 -0.3
v 0.3 -0.2 -0.3
v -0.8 -0.2 -0.8
v 0.8 -0.2 -0.8
v -0.9 -0.2 -0.9
v 0.9 -0.2 -0.9
v -0.8 -0.1 0.8
v 0.8 -0.1 0.8
v -0.7 -0.1 0.7
v 0.7 -0.1 0.7
v -0.4 -0.1 0.4
v 0.4 -0.1 0.4
v -0.3 -0.1 0.3
v 0.3 -0.1 0.3
v -0.3 -0.1 -0.3
v 0.3 -0.1 -0.3
v -0.4 -0.1 -0.4
v 0.4 -0.1 -0.4
v -0.7 -0.1 -0.7
v 0.7 -0.1 -0.7
v -0.8 -0.1 -0.8
v 0.8 -0.1 -0.8
v -0.7 0 0.7
v 0.7 0 0.7
v -0.6 0 0.6
v 0.6 0 0.6
v -0.6 0 -0.6
v 0.6 0 -0.6
v -0.7 0 -0.7
v 0.7 0 -0.7
v -0.6 0.1 0.6
v 0.6 0.1 0.6
v -0.4 0.1 0.4
v 0.4 0.1 0.4
v -0.4 0.1 -0.4
v 0.4 0.1 -0.4
v -0.6 0.1 -0.6
v 0.6 0.1 -0.6
v -1.6 -0.4 1.6
v 1.6 -0.4 1.6
v -1.5 -0.4 1.5
v 1.5 -0.4 1.5
v -1.5 -0.4 -1.5
v 1.5 -0.4 -1.5
v -1.6 -0.4 -1.6
v 1.6 -0.4 -1.6
v -1.5 -0.3 1.5
v 1.5 -0.3 1.5
v -1.4 -0.3 1.4
v 1.4 -0.3 1.4
v -1.4 -0.3 -1.4
v 1.4 -0.3 -1.4
v -1.5 -0.3 -1.5
v 1.5 -0.3 -1.5
v -1.4 -0.2 1.4
v 1.4 -0.2 1.4
v -1.3 -0.2 1.3
v 1.3 -0.2 1.3
v -1.3 -0.2 -1.3
v 1.3 -0.2 -1.3
v -1.4 -0.2 -1.4
v 1.4 -0.2 -1.4
v -1.3 -0.1 1.3
v 1.3 -0.1 1.3
v -1.2 -0.1 1.2
v 1.2 -0.1 1.2
v -1.2 -0.1 -1.2
v 1.2 -0.1 -1.2
v -1.3 -0.1 -1.3
v 1.3 -0.1 -1.3
v -1.2 0 1.2
v 1.2 0 1.2
v -1.1 0 1.1
v 1.1 0 1.1
v -1.1 0 -1.1
v 1.1 0 -1.1
v -1.2 0 -1.2
v 1.2 0 -1.2
v -1.1 0.1 1.1
v 1.1 0.1 1.1
v -1 0.1 1
v 1 0.1 1
v -1 0.1 -1
v 1 0.1 -1
v -1.1 0.1 -1.1
v 1.1 0.1 -1.1
v -1 0.2 1
v 1 0.2 1
v -0.9 0.2 0.9
v 0.9 0.2 0.9
v -0.9 0.2 -0.9
v 0.9 0.2 -0.9
v -1 0.2 -1
v 1 0.2 -1
v -0.9 0.3 0.9
v 0.9 0.3 0.9
v -0.8 0.3 0.8
v 0.8 0.3 0.8
v -0.8 0.3 -0.8
v 0.8 0.3 -0.8
v -0.9 0.3 -0.9
v 0.9 0.3 -0.9
v -0.8 0.4 0.8
v 0.8 0.4 0.8
v -0.7 0.4 0.7
v 0.7 0.4 0.7
v -0.7 0.4 -0.7
v 0.7 0.4 -0.7
v -0.8 0.4 -0.8
v 0.8 0.4 -0.8
v -0.7 0.5 0.7
v 0.7 0.5 0.7
v -0.4 0.5 0.4
v -0.1 0.5 0.4
v 0.1 0.5 0.4
v 0.4 0.5 0.4
v -0.2 0.5 0.3
v -0.1 0.5 0.3
v 0.1 0.5 0.3
v 0.3 0.5 0.3
v -0.3 0.5 0.2
v -0.2 0.5 0.2
v 0.3 0.5 0.2
v 0.4 0.5 0.2
v -0.4 0.5 0.1
v -0.3 0.5 0.1
v -0.4 0.5 -0.1
v -0.3 0.5 -0.1
v 0.3 0.5 -0.1
v 0.4 0.5 -0.1
v -0.3 0.5 -0.2
v -0.2 0.5 -0.2
v 0.2 0.5 -0.2
v 0.3 0.5 -0.2
v -0.2 0.5 -0.3
v -0.1 0.5 -0.3
v 0.1 0.5 -0.3
v 0.2 0.5 -0.3
v -0.4 0.5 -0.4
v -0.1 0.5 -0.4
v 0.1 0.5 -0.4
v 0.4 0.5 -0.4
v -0.7 0.5 -0.7
v 0.7 0.5 -0.7
v -0.1 1.7 0.4
v 0.1 1.7 0.4
v -0.2 1.7 0.3
v -0.1 1.7 0.3
v 0.1 1.7 0.3
v 0.3 1.7 0.3
v -0.3 1.7 0.2
v -0.2 1.7 0.2
v 0.3 1.7 0.2
v 0.4 1.7 0.2
v -0.4 1.7 0.1
v -0.3 1.7 0.1
v -0.4 1.7 -0.1
v -0.3 1.7 -0.1
v 0.3 1.7 -0.1
v 0.4 1.7 -0.1
v -0.3 1.7 -0.2
v -0.2 1.7 -0.2
v 0.2 1.7 -0.2
v 0.3 1.7 -0.2
v -0.2 1.7 -0.3
v -0.1 1.7 -0.3
v 0.1 1.7 -0.3
v 0.2 1.7 -0.3
v -0.1 1.7 -0.4
v 0.1 1.7 -0.4

# faces
f 3/2/1 2/2/1 1/2/1
f 4/2/1 2/2/1 3/2/1
f 7/2/1 6/2/1 5/2/1
f 8/2/1 6/2/1 7/2/1
f 11/2/1 10/2/1 9/2/1
f 12/2/1 10/2/1 11/2/1
f 15/2/1 14/2/1 13/2/1
f 16/2/1 14/2/1 15/2/1
f 19/2/1 18/2/1 17/2/1
f 20/2/1 18/2/1 19/2/1
f 23/2/1 22/2/1 21/2/1
f 24/2/1 22/2/1 23/2/1
f 27/2/1 26/2/1 25/2/1
f 28/2/1 26/2/1 27/2/1
f 31/2/1 30/2/1 29/2/1
f 32/2/1 30/2/1 31/2/1
f 35/2/1 34/2/1 33/2/1
f 36/2/1 34/2/1 35/2/1
f 39/2/1 38/2/1 37/2/1
f 40/2/1 38/2/1 39/2/1
f 43/1/1 42/1/1 41/1/1
f 44/1/1 42/1/1 43/1/1
f 47/3/1 46/3/1 45/3/1
f 48/3/1 46/3/1 47/3/1
f 51/1/1 50/1/1 49/1/1
f 52/1/1 50/1/1 51/1/1
f 57/3/1 54/3/1 53/3/1
f 58/3/1 54/3/1 57/3/1
f 59/3/1 56/3/1 55/3/1
f 60/3/1 56/3/1 59/3/1
f 63/1/1 62/1/1 61/1/1
f 64/1/1 62/1/1 63/1/1
f 69/3/1 66/3/1 65/3/1
f 70/3/1 66/3/1 69/3/1
f 71/3/1 68/3/1 67/3/1
f 72/3/1 68/3/1 71/3/1
f 77/3/1 74/3/1 73/3/1
f 78/3/1 74/3/1 77/3/1
f 79/3/1 76/3/1 75/3/1
f 80/3/1 76/3/1 79/3/1
f 83/2/1 82/2/1 81/2/1
f 84/2/1 82/2/1 83/2/1
f 87/2/1 86/2/1 85/2/1
f 88/2/1 86/2/1 87/2/1
f 91/2/1 90/2/1 89/2/1
f 92/2/1 90/2/1 91/2/1
f 95/2/1 94/2/1 93/2/1
f 96/2/1 94/2/1 95/2/1
f 99/2/1 98/2/1 97/2/1
f 100/2/1 98/2/1 99/2/1
f 103/2/1 102/2/1 101/2/1
f 104/2/1 102/2/1 103/2/1
f 107/2/1 106/2/1 105/2/1
f 108/2/1 106/2/1 107/2/1
f 111/2/1 110/2/1 109/2/1
f 112/2/1 110/2/1 111/2/1
f 113/2/2 114/2/2 115/2/2
f 115/2/2 114/2/2 116/2/2
f 117/2/2 118/2/2 119/2/2
f 119/2/2 118/2/2 120/2/2
f 121/2/2 122/2/2 123/2/2
f 123/2/2 122/2/2 124/2/2
f 125/2/2 126/2/2 127/2/2
f 127/2/2 126/2/2 128/2/2
f 129/2/2 130/2/2 131/2/2
f 131/2/2 130/2/2 132/2/2
f 133/2/2 134/2/2 135/2/2
f 135/2/2 134/2/2 136/2/2
f 137/2/2 138/2/2 139/2/2
f 139/2/2 138/2/2 140/2/2
f 141/2/2 142/2/2 143/2/2
f 143/2/2 142/2/2 144/2/2
f 145/3/2 146/3/2 149/3/2
f 149/3/2 146/3/2 150/3/2
f 147/3/2 148/3/2 151/3/2
f 151/3/2 148/3/2 152/3/2
f 153/1/2 154/1/2 155/1/2
f 155/1/2 154/1/2 156/1/2
f 157/3/2 158/3/2 159/3/2
f 159/3/2 158/3/2 160/3/2
f 161/1/2 162/1/2 163/1/2
f 163/1/2 162/1/2 164/1/2
f 165/3/2 166/3/2 169/3/2
f 169/3/2 166/3/2 170/3/2
f 167/3/2 168/3/2 171/3/2
f 171/3/2 168/3/2 172/3/2
f 173/1/2 174/1/2 175/1/2
f 175/1/2 174/1/2 176/1/2
f 177/3/2 178/3/2 179/3/2
f 179/3/2 178/3/2 180/3/2
f 181/2/2 182/2/2 183/2/2
f 183/2/2 182/2/2 184/2/2
f 185/2/2 186/2/2 187/2/2
f 187/2/2 186/2/2 188/2/2
f 189/2/2 190/2/2 191/2/2
f 191/2/2 190/2/2 192/2/2
f 193/2/2 194/2/2 195/2/2
f 195/2/2 194/2/2 196/2/2
f 197/2/2 198/2/2 199/2/2
f 199/2/2 198/2/2 200/2/2
f 201/2/2 202/2/2 203/2/2
f 203/2/2 202/2/2 204/2/2
f 205/2/2 206/2/2 207/2/2
f 207/2/2 206/2/2 208/2/2
f 209/2/2 210/2/2 211/2/2
f 211/2/2 210/2/2 212/2/2
f 213/2/2 214/2/2 215/2/2
f 215/2/2 214/2/2 216/2/2
f 217/2/2 218/2/2 219/2/2
f 219/2/2 218/2/2 220/2/2
f 223/2/3 222/2/3 221/2/3
f 224/2/3 222/2/3 223/2/3
f 227/2/3 226/2/3 225/2/3
f 228/2/3 226/2/3 227/2/3
f 231/2/3 230/2/3 229/2/3
f 232/2/3 230/2/3 231/2/3
f 235/2/3 234/2/3 233/2/3
f 236/2/3 234/2/3 235/2/3
f 239/2/3 238/2/3 237/2/3
f 240/2/3 238/2/3 239/2/3
f 243/2/3 242/2/3 241/2/3
f 244/2/3 242/2/3 243/2/3
f 247/2/3 246/2/3 245/2/3
f 248/2/3 246/2/3 247/2/3
f 251/2/3 250/2/3 249/2/3
f 252/2/3 250/2/3 251/2/3
f 255/2/3 254/2/3 253/2/3
f 256/2/3 254/2/3 255/2/3
f 259/2/3 258/2/3 257/2/3
f 260/2/3 258/2/3 259/2/3
f 265/3/3 264/3/3 263/3/3
f 266/3/3 264/3/3 265/3/3
f 267/1/3 262/1/3 261/1/3
f 268/1/3 262/1/3 267/1/3
f 273/3/3 272/3/3 271/3/3
f 274/3/3 272/3/3 273/3/3
f 277/1/3 270/1/3 269/1/3
f 278/1/3 270/1/3 277/1/3
f 279/3/3 276/3/3 275/3/3
f 280/3/3 276/3/3 279/3/3
f 285/3/3 282/3/3 281/3/3
f 286/3/3 282/3/3 285/3/3
f 287/1/3 284/1/3 283/1/3
f 288/1/3 284/1/3 287/1/3
f 291/3/3 290/3/3 289/3/3
f 292/3/3 290/3/3 291/3/3
f 295/3/3 294/3/3 293/3/3
f 296/3/3 294/3/3 295/3/3
f 299/2/3 298/2/3 297/2/3
f 300/2/3 298/2/3 299/2/3
f 303/2/3 302/2/3 301/2/3
f 304/2/3 302/2/3 303/2/3
f 307/2/3 306/2/3 305/2/3
f 308/2/3 306/2/3 307/2/3
f 311/2/3 310/2/3 309/2/3
f 312/2/3 310/2/3 311/2/3
f 315/2/3 314/2/3 313/2/3
f 316/2/3 314/2/3 315/2/3
f 319/2/3 318/2/3 317/2/3
f 320/2/3 318/2/3 319/2/3
f 323/2/3 322/2/3 321/2/3
f 324/2/3 322/2/3 323/2/3
f 327/2/3 326/2/3 325/2/3
f 328/2/3 326/2/3 327/2/3
f 329/2/4 330/2/4 331/2/4
f 331/2/4 330/2/4 332/2/4
f 333/2/4 334/2/4 335/2/4
f 335/2/4 334/2/4 336/2/4
f 337/2/4 338/2/4 339/2/4
f 339/2/4 338/2/4 340/2/4
f 341/2/4 342/2/4 343/2/4
f 343/2/4 342/2/4 344/2/4
f 345/2/4 346/2/4 347/2/4
f 347/2/4 346/2/4 348/2/4
f 349/2/4 350/2/4 351/2/4
f 351/2/4 350/2/4 352/2/4
f 353/2/4 354/2/4 355/2/4
f 355/2/4 354/2/4 356/2/4
f 357/2/4 358/2/4 359/2/4
f 359/2/4 358/2/4 360/2/4
f 361/3/4 362/3/4 363/3/4
f 363/3/4 362/3/4 364/3/4
f 365/3/4 366/3/4 367/3/4
f 367/3/4 366/3/4 368/3/4
f 369/3/4 370/3/4 373/3/4
f 373/3/4 370/3/4 374/3/4
f 371/1/4 372/1/4 375/1/4
f 375/1/4 372/1/4 376/1/4
f 377/3/4 378/3/4 379/3/4
f 379/3/4 378/3/4 380/3/4
f 383/3/4 384/3/4 385/3/4
f 385/3/4 384/3/4 386/3/4
f 387/3/4 388/3/4 389/3/4
f 389/3/4 388/3/4 390/3/4
f 381/1/4 382/1/4 391/1/4
f 391/1/4 382/1/4 392/1/4
f 395/3/4 396/3/4 397/3/4
f 397/3/4 396/3/4 398/3/4
f 393/1/4 394/1/4 399/1/4
f 399/1/4 394/1/4 400/1/4
f 401/2/4 402/2/4 403/2/4
f 403/2/4 402/2/4 404/2/4
f 405/2/4 406/2/4 407/2/4
f 407/2/4 406/2/4 408/2/4
f 409/2/4 410/2/4 411/2/4
f 411/2/4 410/2/4 412/2/4
f 413/2/4 414/2/4 415/2/4
f 415/2/4 414/2/4 416/2/4
f 417/2/4 418/2/4 419/2/4
f 419/2/4 418/2/4 420/2/4
f 421/2/4 422/2/4 423/2/4
f 423/2/4 422/2/4 424/2/4
f 425/2/4 426/2/4 427/2/4
f 427/2/4 426/2/4 428/2/4
f 429/2/4 430/2/4 431/2/4
f 431/2/4 430/2/4 432/2/4
f 433/2/4 434/2/4 435/2/4
f 435/2/4 434/2/4 436/2/4
f 437/2/4 438/2/4 439/2/4
f 439/2/4 438/2/4 440/2/4
f 443/2/5 442/2/5 441/2/5
f 444/2/5 442/2/5 443/2/5
f 445/2/5 443/2/5 441/2/5
f 446/2/5 442/2/5 444/2/5
f 447/2/5 445/2/5 441/2/5
f 447/2/5 446/2/5 445/2/5
f 448/2/5 442/2/5 446/2/5
f 448/2/5 446/2/5 447/2/5
f 451/2/5 450/2/5 449/2/5
f 452/2/5 450/2/5 451/2/5
f 453/2/5 451/2/5 449/2/5
f 454/2/5 450/2/5 452/2/5
f 455/2/5 453/2/5 449/2/5
f 455/2/5 454/2/5 453/2/5
f 456/2/5 450/2/5 454/2/5
f 456/2/5 454/2/5 455/2/5
f 459/2/5 458/2/5 457/2/5
f 460/2/5 458/2/5 459/2/5
f 461/2/5 459/2/5 457/2/5
f 462/2/5 458/2/5 460/2/5
f 463/2/5 461/2/5 457/2/5
f 463/2/5 462/2/5 461/2/5
f 464/2/5 458/2/5 462/2/5
f 464/2/5 462/2/5 463/2/5
f 467/2/5 466/2/5 465/2/5
f 468/2/5 466/2/5 467/2/5
f 469/2/5 467/2/5 465/2/5
f 470/2/5 466/2/5 468/2/5
f 471/2/5 469/2/5 465/2/5
f 471/2/5 470/2/5 469/2/5
f 472/2/5 466/2/5 470/2/5
f 472/2/5 470/2/5 471/2/5
f 475/2/5 474/2/5 473/2/5
f 476/2/5 474/2/5 475/2/5
f 479/1/5 478/1/5 477/1/5
f 480/1/5 478/1/5 479/1/5
f 481/2/5 475/2/5 473/2/5
f 482/2/5 474/2/5 476/2/5
f 483/2/5 481/2/5 473/2/5
f 483/2/5 482/2/5 481/2/5
f 484/2/5 474/2/5 482/2/5
f 484/2/5 482/2/5 483/2/5
f 487/2/5 486/2/5 485/2/5
f 488/2/5 486/2/5 487/2/5
f 491/1/5 490/1/5 489/1/5
f 492/1/5 490/1/5 491/1/5
f 493/1/5 491/1/5 489/1/5
f 494/1/5 490/1/5 492/1/5
f 495/1/5 493/1/5 489/1/5
f 495/1/5 494/1/5 493/1/5
f 496/1/5 490/1/5 494/1/5
f 496/1/5 494/1/5 495/1/5
f 497/2/5 487/2/5 485/2/5
f 498/2/5 486/2/5 488/2/5
f 499/2/5 497/2/5 485/2/5
f 499/2/5 498/2/5 497/2/5
f 500/2/5 486/2/5 498/2/5
f 500/2/5 498/2/5 499/2/5
f 503/2/5 502/2/5 501/2/5
f 504/2/5 502/2/5 503/2/5
f 507/1/5 506/1/5 505/1/5
f 508/1/5 506/1/5 507/1/5
f 509/1/5 507/1/5 505/1/5
f 510/1/5 506/1/5 508/1/5
f 511/1/5 509/1/5 505/1/5
f 511/1/5 510/1/5 509/1/5
f 512/1/5 506/1/5 510/1/5
f 512/1/5 510/1/5 511/1/5
f 513/2/5 503/2/5 501/2/5
f 514/2/5 502/2/5 504/2/5
f 515/2/5 513/2/5 501/2/5
f 515/2/5 514/2/5 513/2/5
f 516/2/5 502/2/5 514/2/5
f 516/2/5 514/2/5 515/2/5
f 519/2/5 518/2/5 517/2/5
f 520/2/5 518/2/5 519/2/5
f 521/2/5 519/2/5 517/2/5
f 522/2/5 518/2/5 520/2/5
f 523/2/5 521/2/5 517/2/5
f 523/2/5 522/2/5 521/2/5
f 524/2/5 518/2/5 522/2/5
f 524/2/5 522/2/5 523/2/5
f 527/2/5 526/2/5 525/2/5
f 528/2/5 526/2/5 527/2/5
f 529/2/5 527/2/5 525/2/5
f 530/2/5 526/2/5 528/2/5
f 531/2/5 529/2/5 525/2/5
f 531/2/5 530/2/5 529/2/5
f 532/2/5 526/2/5 530/2/5
f 532/2/5 530/2/5 531/2/5
f 533/2/6 534/2/6 535/2/6
f 535/2/6 534/2/6 536/2/6
f 533/2/6 535/2/6 537/2/6
f 536/2/6 534/2/6 538/2/6
f 533/2/6 537/2/6 539/2/6
f 537/2/6 538/2/6 539/2/6
f 538/2/6 534/2/6 540/2/6
f 539/2/6 538/2/6 540/2/6
f 541/2/6 542/2/6 543/2/6
f 543/2/6 542/2/6 544/2/6
f 541/2/6 543/2/6 545/2/6
f 544/2/6 542/2/6 546/2/6
f 541/2/6 545/2/6 547/2/6
f 545/2/6 546/2/6 547/2/6
f 546/2/6 542/2/6 548/2/6
f 547/2/6 546/2/6 548/2/6
f 549/2/6 550/2/6 551/2/6
f 551/2/6 550/2/6 552/2/6
f 549/2/6 551/2/6 553/2/6
f 552/2/6 550/2/6 554/2/6
f 549/2/6 553/2/6 555/2/6
f 553/2/6 554/2/6 555/2/6
f 554/2/6 550/2/6 556/2/6
f 555/2/6 554/2/6 556/2/6
f 557/2/6 558/2/6 559/2/6
f 559/2/6 558/2/6 560/2/6
f 557/2/6 559/2/6 561/2/6
f 560/2/6 558/2/6 562/2/6
f 557/2/6 561/2/6 563/2/6
f 561/2/6 562/2/6 563/2/6
f 562/2/6 558/2/6 564/2/6
f 563/2/6 562/2/6 564/2/6
f 565/2/6 566/2/6 567/2/6
f 567/2/6 566/2/6 568/2/6
f 565/2/6 567/2/6 569/2/6
f 568/2/6 566/2/6 570/2/6
f 565/2/6 569/2/6 571/2/6
f 569/2/6 570/2/6 571/2/6
f 570/2/6 566/2/6 572/2/6
f 571/2/6 570/2/6 572/2/6
f 573/2/6 574/2/6 575/2/6
f 575/2/6 574/2/6 576/2/6
f 573/2/6 575/2/6 577/2/6
f 576/2/6 574/2/6 578/2/6
f 573/2/6 577/2/6 579/2/6
f 577/2/6 578/2/6 579/2/6
f 578/2/6 574/2/6 580/2/6
f 579/2/6 578/2/6 580/2/6
f 581/2/6 582/2/6 583/2/6
f 583/2/6 582/2/6 584/2/6
f 581/2/6 583/2/6 585/2/6
f 584/2/6 582/2/6 586/2/6
f 581/2/6 585/2/6 587/2/6
f 585/2/6 586/2/6 587/2/6
f 586/2/6 582/2/6 588/2/6
f 587/2/6 586/2/6 588/2/6
f 589/2/6 590/2/6 591/2/6
f 591/2/6 590/2/6 592/2/6
f 589/2/6 591/2/6 593/2/6
f 592/2/6 590/2/6 594/2/6
f 589/2/6 593/2/6 595/2/6
f 593/2/6 594/2/6 595/2/6
f 594/2/6 590/2/6 596/2/6
f 595/2/6 594/2/6 596/2/6
f 597/2/6 598/2/6 599/2/6
f 599/2/6 598/2/6 600/2/6
f 597/2/6 599/2/6 601/2/6
f 600/2/6 598/2/6 602/2/6
f 597/2/6 601/2/6 603/2/6
f 601/2/6 602/2/6 603/2/6
f 602/2/6 598/2/6 604/2/6
f 603/2/6 602/2/6 604/2/6
f 605/2/6 606/2/6 607/2/6
f 607/2/6 606/2/6 608/2/6
f 608/2/6 606/2/6 609/2/6
f 609/2/6 606/2/6 610/2/6
f 607/3/6 608/3/6 611/3/6
f 611/3/6 608/3/6 612/3/6
f 609/3/6 610/3/6 613/3/6
f 613/3/6 610/3/6 614/3/6
f 607/3/6 611/3/6 615/3/6
f 615/3/6 611/3/6 616/3/6
f 614/3/6 610/3/6 617/3/6
f 610/2/6 606/2/6 618/2/6
f 617/3/6 610/3/6 618/3/6
f 605/2/6 607/2/6 619/2/6
f 607/3/6 615/3/6 619/3/6
f 619/3/6 615/3/6 620/3/6
f 605/2/6 619/2/6 621/2/6
f 618/2/6 606/2/6 624/2/6
f 621/3/6 622/3/6 625/3/6
f 623/3/6 624/3/6 628/3/6
f 625/3/6 626/3/6 629/3/6
f 627/3/6 628/3/6 632/3/6
f 605/2/6 621/2/6 633/2/6
f 629/3/6 630/3/6 633/3/6
f 621/3/6 625/3/6 633/3/6
f 625/3/6 629/3/6 633/3/6
f 633/3/6 630/3/6 634/3/6
f 631/3/6 632/3/6 635/3/6
f 632/3/6 628/3/6 636/3/6
f 624/2/6 606/2/6 636/2/6
f 635/3/6 632/3/6 636/3/6
f 628/3/6 624/3/6 636/3/6
f 633/2/6 634/2/6 637/2/6
f 634/2/6 635/2/6 637/2/6
f 635/2/6 636/2/6 637/2/6
f 605/2/6 633/2/6 637/2/6
f 636/2/6 606/2/6 638/2/6
f 637/2/6 636/2/6 638/2/6
f 639/3/6 640/3/6 642/3/6
f 642/3/6 640/3/6 643/3/6
f 641/3/6 642/3/6 646/3/6
f 643/3/6 644/3/6 646/3/6
f 642/3/6 643/3/6 646/3/6
f 646/3/6 644/3/6 647/3/6
f 645/3/6 646/3/6 650/3/6
f 647/3/6 648/3/6 650/3/6
f 646/3/6 647/3/6 650/3/6
f 649/3/6 650/3/6 651/3/6
f 650/3/6 648/3/6 652/3/6
f 651/3/6 650/3/6 652/3/6
f 652/3/6 648/3/6 653/3/6
f 653/3/6 648/3/6 654/3/6
f 652/3/6 653/3/6 655/3/6
f 655/3/6 653/3/6 656/3/6
f 656/3/6 653/3/6 657/3/6
f 657/3/6 653/3/6 658/3/6
f 656/3/6 657/3/6 659/3/6
f 659/3/6 657/3/6 660/3/6
f 660/3/6 657/3/6 661/3/6
f 661/3/6 657/3/6 662/3/6
f 660/3/6 661/3/6 663/3/6
f 663/3/6 661/3/6 664/3/6
