# MagicaVoxel @ Ephtracy

# group
o 

# material
mtllib Bookshelves.mtl
usemtl palette

# normals
vn -1 0 0
vn 1 0 0
vn 0 0 1
vn 0 0 -1
vn 0 -1 0
vn 0 1 0

# texcoords
vt 0.0175781 0.5
vt 0.138672 0.5
vt 0.166016 0.5
vt 0.185547 0.5
vt 0.279297 0.5
vt 0.447266 0.5
vt 0.455078 0.5
vt 0.466797 0.5
vt 0.537109 0.5
vt 0.583984 0.5
vt 0.701172 0.5
vt 0.740234 0.5
vt 0.794922 0.5
vt 0.798828 0.5
vt 0.810547 0.5
vt 0.822266 0.5
vt 0.841797 0.5
vt 0.884766 0.5
vt 0.986328 0.5

# verts
v -2 0 -1.3
v -2 0 -2
v -2 4 -1.3
v -2 4 -2
v -1.4 1.6 -1.4
v -1.4 1.6 -1.5
v -1.4 2.6 -1.4
v -1.4 2.6 -1.5
v -1 0.4 -1.4
v -1 0.4 -1.5
v -1 1.4 -1.4
v -1 1.4 -1.5
v -0.6 2.8 -1.4
v -0.6 2.8 -1.5
v -0.6 3.8 -1.4
v -0.6 3.8 -1.5
v -0.2 2.8 -1.3
v -0.2 2.8 -1.4
v -0.2 3.8 -1.3
v -0.2 3.8 -1.4
v 0.2 0.4 -1.4
v 0.2 0.4 -1.5
v 0.2 1.4 -1.4
v 0.2 1.4 -1.5
v 1 1.6 -1.5
v 1 1.6 -1.8
v 1 2.6 -1.5
v 1 2.6 -1.8
v 1 2.8 -1.3
v 1 2.8 -1.5
v 1 3.8 -1.3
v 1 3.8 -1.5
v 1.4 0.4 -1.4
v 1.4 0.4 -1.5
v 1.4 1.4 -1.4
v 1.4 1.4 -1.5
v 1.4 1.6 -1.4
v 1.4 1.6 -1.5
v 1.4 2.6 -1.4
v 1.4 2.6 -1.5
v 1.8 0.4 -1.3
v 1.8 0.4 -1.4
v 1.8 1.4 -1.3
v 1.8 1.4 -1.4
v 1.8 1.6 -1.3
v 1.8 1.6 -1.4
v 1.8 2.6 -1.3
v 1.8 2.6 -1.4
v -1.8 0.4 -1.3
v -1.8 0.4 -1.4
v -1.8 1.4 -1.3
v -1.8 1.4 -1.4
v -1.8 1.6 -1.3
v -1.8 1.6 -1.5
v -1.8 2.6 -1.3
v -1.8 2.6 -1.5
v -1.4 0.4 -1.4
v -1.4 0.4 -1.5
v -1.4 1.4 -1.4
v -1.4 1.4 -1.5
v -1.4 2.8 -1.3
v -1.4 2.8 -1.4
v -1.4 3.8 -1.3
v -1.4 3.8 -1.4
v -1 1.6 -1.4
v -1 1.6 -1.8
v -1 2.6 -1.4
v -1 2.6 -1.8
v -1 2.8 -1.4
v -1 2.8 -1.5
v -1 3.8 -1.4
v -1 3.8 -1.5
v -0.6 0.4 -1.4
v -0.6 0.4 -1.5
v -0.6 1.4 -1.4
v -0.6 1.4 -1.5
v 0.2 2.8 -1.3
v 0.2 2.8 -1.4
v 0.2 3.8 -1.3
v 0.2 3.8 -1.4
v 0.6 2.8 -1.4
v 0.6 2.8 -1.5
v 0.6 3.8 -1.4
v 0.6 3.8 -1.5
v 1 0.4 -1.4
v 1 0.4 -1.5
v 1 1.4 -1.4
v 1 1.4 -1.5
v 2 0 -1.3
v 2 0 -2
v 2 4 -1.3
v 2 4 -2
v -2 0 -1.3
v -2 4 -1.3
v -1.8 0.4 -1.3
v -1.8 1.4 -1.3
v -1.8 1.6 -1.3
v -1.8 2.6 -1.3
v -1.8 2.8 -1.3
v -1.8 3.8 -1.3
v -1.4 2.8 -1.3
v -1.4 3.8 -1.3
v -0.2 2.8 -1.3
v -0.2 3.8 -1.3
v 0.2 2.8 -1.3
v 0.2 3.8 -1.3
v 1 2.8 -1.3
v 1 3.8 -1.3
v 1.4 2.8 -1.3
v 1.4 3.8 -1.3
v 1.8 0.4 -1.3
v 1.8 1.4 -1.3
v 1.8 1.6 -1.3
v 1.8 2.6 -1.3
v 1.8 2.8 -1.3
v 1.8 3.8 -1.3
v 2 0 -1.3
v 2 4 -1.3
v -1.8 0.4 -1.4
v -1.8 1.4 -1.4
v -1.4 0.4 -1.4
v -1.4 1.4 -1.4
v -1.4 1.6 -1.4
v -1.4 2.6 -1.4
v -1.4 2.8 -1.4
v -1.4 3.8 -1.4
v -1 0.4 -1.4
v -1 1.4 -1.4
v -1 1.6 -1.4
v -1 2.6 -1.4
v -1 2.8 -1.4
v -1 3.8 -1.4
v -0.6 0.4 -1.4
v -0.6 1.4 -1.4
v -0.6 2.8 -1.4
v -0.6 3.8 -1.4
v -0.2 2.8 -1.4
v -0.2 3.8 -1.4
v 0.2 0.4 -1.4
v 0.2 1.4 -1.4
v 0.2 2.8 -1.4
v 0.2 3.8 -1.4
v 0.6 0.4 -1.4
v 0.6 1.4 -1.4
v 0.6 2.8 -1.4
v 0.6 3.8 -1.4
v 1 0.4 -1.4
v 1 1.4 -1.4
v 1.4 0.4 -1.4
v 1.4 1.4 -1.4
v 1.4 1.6 -1.4
v 1.4 2.6 -1.4
v 1.8 0.4 -1.4
v 1.8 1.4 -1.4
v 1.8 1.6 -1.4
v 1.8 2.6 -1.4
v -1.8 1.6 -1.5
v -1.8 2.6 -1.5
v -1.4 0.4 -1.5
v -1.4 1.4 -1.5
v -1.4 1.6 -1.5
v -1.4 2.6 -1.5
v -1 0.4 -1.5
v -1 1.4 -1.5
v -1 2.8 -1.5
v -1 3.8 -1.5
v -0.6 0.4 -1.5
v -0.6 1.4 -1.5
v -0.6 2.8 -1.5
v -0.6 3.8 -1.5
v -0.2 0.4 -1.5
v -0.2 1.4 -1.5
v 0.2 0.4 -1.5
v 0.2 1.4 -1.5
v 0.6 2.8 -1.5
v 0.6 3.8 -1.5
v 1 0.4 -1.5
v 1 1.4 -1.5
v 1 1.6 -1.5
v 1 2.6 -1.5
v 1 2.8 -1.5
v 1 3.8 -1.5
v 1.4 0.4 -1.5
v 1.4 1.4 -1.5
v 1.4 1.6 -1.5
v 1.4 2.6 -1.5
v -1 1.6 -1.8
v -1 2.6 -1.8
v 1 1.6 -1.8
v 1 2.6 -1.8
v -2 0 -2
v -2 4 -2
v 2 0 -2
v 2 4 -2
v -2 0 -1.3
v 2 0 -1.3
v -2 0 -2
v 2 0 -2
v -1.8 1.4 -1.3
v 1.8 1.4 -1.3
v -1.8 1.4 -1.4
v -1.4 1.4 -1.4
v -1 1.4 -1.4
v -0.6 1.4 -1.4
v 0.2 1.4 -1.4
v 0.6 1.4 -1.4
v 1 1.4 -1.4
v 1.4 1.4 -1.4
v 1.8 1.4 -1.4
v -1.4 1.4 -1.5
v -1 1.4 -1.5
v -0.6 1.4 -1.5
v -0.2 1.4 -1.5
v 0.2 1.4 -1.5
v 1 1.4 -1.5
v 1.4 1.4 -1.5
v -1.8 2.6 -1.3
v 1.8 2.6 -1.3
v -1.4 2.6 -1.4
v -1 2.6 -1.4
v 1.4 2.6 -1.4
v 1.8 2.6 -1.4
v -1.8 2.6 -1.5
v -1.4 2.6 -1.5
v 1 2.6 -1.5
v 1.4 2.6 -1.5
v -1 2.6 -1.8
v 1 2.6 -1.8
v -1.4 3.8 -1.3
v -0.2 3.8 -1.3
v 0.2 3.8 -1.3
v 1 3.8 -1.3
v -1.4 3.8 -1.4
v -1 3.8 -1.4
v -0.6 3.8 -1.4
v -0.2 3.8 -1.4
v 0.2 3.8 -1.4
v 0.6 3.8 -1.4
v -1 3.8 -1.5
v -0.6 3.8 -1.5
v 0.6 3.8 -1.5
v 1 3.8 -1.5
v -1.8 0.4 -1.3
v 1.8 0.4 -1.3
v -1.8 0.4 -1.4
v -1.4 0.4 -1.4
v -1 0.4 -1.4
v -0.6 0.4 -1.4
v 0.2 0.4 -1.4
v 0.6 0.4 -1.4
v 1 0.4 -1.4
v 1.4 0.4 -1.4
v 1.8 0.4 -1.4
v -1.4 0.4 -1.5
v -1 0.4 -1.5
v -0.6 0.4 -1.5
v -0.2 0.4 -1.5
v 0.2 0.4 -1.5
v 1 0.4 -1.5
v 1.4 0.4 -1.5
v -1.8 1.6 -1.3
v 1.8 1.6 -1.3
v -1.4 1.6 -1.4
v -1 1.6 -1.4
v 1.4 1.6 -1.4
v 1.8 1.6 -1.4
v -1.8 1.6 -1.5
v -1.4 1.6 -1.5
v 1 1.6 -1.5
v 1.4 1.6 -1.5
v -1 1.6 -1.8
v 1 1.6 -1.8
v -1.4 2.8 -1.3
v -0.2 2.8 -1.3
v 0.2 2.8 -1.3
v 1 2.8 -1.3
v -1.4 2.8 -1.4
v -1 2.8 -1.4
v -0.6 2.8 -1.4
v -0.2 2.8 -1.4
v 0.2 2.8 -1.4
v 0.6 2.8 -1.4
v -1 2.8 -1.5
v -0.6 2.8 -1.5
v 0.6 2.8 -1.5
v 1 2.8 -1.5
v -2 4 -1.3
v 2 4 -1.3
v -2 4 -2
v 2 4 -2

# faces
f 3/9/1 2/9/1 1/9/1
f 4/9/1 2/9/1 3/9/1
f 7/19/1 6/19/1 5/19/1
f 8/19/1 6/19/1 7/19/1
f 11/5/1 10/5/1 9/5/1
f 12/5/1 10/5/1 11/5/1
f 15/14/1 14/14/1 13/14/1
f 16/14/1 14/14/1 15/14/1
f 19/12/1 18/12/1 17/12/1
f 20/12/1 18/12/1 19/12/1
f 23/7/1 22/7/1 21/7/1
f 24/7/1 22/7/1 23/7/1
f 27/19/1 26/19/1 25/19/1
f 28/19/1 26/19/1 27/19/1
f 31/8/1 30/8/1 29/8/1
f 32/8/1 30/8/1 31/8/1
f 35/4/1 34/4/1 33/4/1
f 36/4/1 34/4/1 35/4/1
f 39/19/1 38/19/1 37/19/1
f 40/19/1 38/19/1 39/19/1
f 43/9/1 42/9/1 41/9/1
f 44/9/1 42/9/1 43/9/1
f 47/9/1 46/9/1 45/9/1
f 48/9/1 46/9/1 47/9/1
f 49/9/2 50/9/2 51/9/2
f 51/9/2 50/9/2 52/9/2
f 53/9/2 54/9/2 55/9/2
f 55/9/2 54/9/2 56/9/2
f 57/13/2 58/13/2 59/13/2
f 59/13/2 58/13/2 60/13/2
f 61/18/2 62/18/2 63/18/2
f 63/18/2 62/18/2 64/18/2
f 65/19/2 66/19/2 67/19/2
f 67/19/2 66/19/2 68/19/2
f 69/17/2 70/17/2 71/17/2
f 71/17/2 70/17/2 72/17/2
f 73/5/2 74/5/2 75/5/2
f 75/5/2 74/5/2 76/5/2
f 77/12/2 78/12/2 79/12/2
f 79/12/2 78/12/2 80/12/2
f 81/1/2 82/1/2 83/1/2
f 83/1/2 82/1/2 84/1/2
f 85/11/2 86/11/2 87/11/2
f 87/11/2 86/11/2 88/11/2
f 89/9/2 90/9/2 91/9/2
f 91/9/2 90/9/2 92/9/2
f 95/9/3 94/9/3 93/9/3
f 96/9/3 94/9/3 95/9/3
f 97/9/3 94/9/3 96/9/3
f 98/9/3 94/9/3 97/9/3
f 99/9/3 94/9/3 98/9/3
f 100/9/3 94/9/3 99/9/3
f 101/18/3 100/18/3 99/18/3
f 101/9/3 99/9/3 98/9/3
f 102/9/3 94/9/3 100/9/3
f 102/18/3 100/18/3 101/18/3
f 103/9/3 101/9/3 98/9/3
f 104/9/3 94/9/3 102/9/3
f 105/9/3 103/9/3 98/9/3
f 105/12/3 104/12/3 103/12/3
f 106/9/3 94/9/3 104/9/3
f 106/12/3 104/12/3 105/12/3
f 107/9/3 105/9/3 98/9/3
f 108/9/3 94/9/3 106/9/3
f 109/9/3 107/9/3 98/9/3
f 109/8/3 108/8/3 107/8/3
f 110/9/3 94/9/3 108/9/3
f 110/8/3 108/8/3 109/8/3
f 111/9/3 95/9/3 93/9/3
f 112/9/3 97/9/3 96/9/3
f 113/9/3 97/9/3 112/9/3
f 114/9/3 109/9/3 98/9/3
f 115/2/3 110/2/3 109/2/3
f 115/9/3 109/9/3 114/9/3
f 116/9/3 94/9/3 110/9/3
f 116/2/3 110/2/3 115/2/3
f 117/9/3 115/9/3 114/9/3
f 117/9/3 113/9/3 112/9/3
f 117/9/3 116/9/3 115/9/3
f 117/9/3 111/9/3 93/9/3
f 117/9/3 112/9/3 111/9/3
f 117/9/3 114/9/3 113/9/3
f 118/9/3 94/9/3 116/9/3
f 118/9/3 116/9/3 117/9/3
f 121/13/3 120/13/3 119/13/3
f 122/13/3 120/13/3 121/13/3
f 129/19/3 124/19/3 123/19/3
f 130/19/3 124/19/3 129/19/3
f 131/17/3 126/17/3 125/17/3
f 132/17/3 126/17/3 131/17/3
f 133/5/3 128/5/3 127/5/3
f 134/5/3 128/5/3 133/5/3
f 137/14/3 136/14/3 135/14/3
f 138/14/3 136/14/3 137/14/3
f 143/7/3 140/7/3 139/7/3
f 144/7/3 140/7/3 143/7/3
f 145/1/3 142/1/3 141/1/3
f 146/1/3 142/1/3 145/1/3
f 147/11/3 144/11/3 143/11/3
f 148/11/3 144/11/3 147/11/3
f 153/4/3 150/4/3 149/4/3
f 154/4/3 150/4/3 153/4/3
f 155/19/3 152/19/3 151/19/3
f 156/19/3 152/19/3 155/19/3
f 161/19/3 158/19/3 157/19/3
f 162/19/3 158/19/3 161/19/3
f 163/15/3 160/15/3 159/15/3
f 164/15/3 160/15/3 163/15/3
f 169/16/3 166/16/3 165/16/3
f 170/16/3 166/16/3 169/16/3
f 171/6/3 168/6/3 167/6/3
f 172/6/3 168/6/3 171/6/3
f 173/10/3 172/10/3 171/10/3
f 174/10/3 172/10/3 173/10/3
f 181/4/3 176/4/3 175/4/3
f 182/4/3 176/4/3 181/4/3
f 183/3/3 178/3/3 177/3/3
f 184/3/3 178/3/3 183/3/3
f 185/19/3 180/19/3 179/19/3
f 186/19/3 180/19/3 185/19/3
f 189/9/3 188/9/3 187/9/3
f 190/9/3 188/9/3 189/9/3
f 191/9/4 192/9/4 193/9/4
f 193/9/4 192/9/4 194/9/4
f 197/9/5 196/9/5 195/9/5
f 198/9/5 196/9/5 197/9/5
f 201/9/5 200/9/5 199/9/5
f 202/9/5 200/9/5 201/9/5
f 203/9/5 200/9/5 202/9/5
f 204/9/5 200/9/5 203/9/5
f 205/9/5 200/9/5 204/9/5
f 206/9/5 200/9/5 205/9/5
f 207/9/5 200/9/5 206/9/5
f 208/9/5 200/9/5 207/9/5
f 209/9/5 200/9/5 208/9/5
f 210/9/5 203/9/5 202/9/5
f 211/9/5 203/9/5 210/9/5
f 212/9/5 205/9/5 204/9/5
f 213/9/5 205/9/5 212/9/5
f 214/9/5 205/9/5 213/9/5
f 215/9/5 208/9/5 207/9/5
f 216/9/5 208/9/5 215/9/5
f 219/9/5 218/9/5 217/9/5
f 220/9/5 218/9/5 219/9/5
f 221/9/5 218/9/5 220/9/5
f 222/9/5 218/9/5 221/9/5
f 223/9/5 219/9/5 217/9/5
f 224/9/5 219/9/5 223/9/5
f 225/9/5 221/9/5 220/9/5
f 226/9/5 221/9/5 225/9/5
f 227/9/5 225/9/5 220/9/5
f 228/9/5 225/9/5 227/9/5
f 233/9/5 230/9/5 229/9/5
f 234/9/5 230/9/5 233/9/5
f 235/9/5 230/9/5 234/9/5
f 236/9/5 230/9/5 235/9/5
f 237/9/5 232/9/5 231/9/5
f 238/9/5 232/9/5 237/9/5
f 239/9/5 235/9/5 234/9/5
f 240/9/5 235/9/5 239/9/5
f 241/9/5 232/9/5 238/9/5
f 242/9/5 232/9/5 241/9/5
f 243/9/6 244/9/6 245/9/6
f 245/9/6 244/9/6 246/9/6
f 246/9/6 244/9/6 247/9/6
f 247/9/6 244/9/6 248/9/6
f 248/9/6 244/9/6 249/9/6
f 249/9/6 244/9/6 250/9/6
f 250/9/6 244/9/6 251/9/6
f 251/9/6 244/9/6 252/9/6
f 252/9/6 244/9/6 253/9/6
f 246/9/6 247/9/6 254/9/6
f 254/9/6 247/9/6 255/9/6
f 248/9/6 249/9/6 256/9/6
f 256/9/6 249/9/6 257/9/6
f 257/9/6 249/9/6 258/9/6
f 251/9/6 252/9/6 259/9/6
f 259/9/6 252/9/6 260/9/6
f 261/9/6 262/9/6 263/9/6
f 263/9/6 262/9/6 264/9/6
f 264/9/6 262/9/6 265/9/6
f 265/9/6 262/9/6 266/9/6
f 261/9/6 263/9/6 267/9/6
f 267/9/6 263/9/6 268/9/6
f 264/9/6 265/9/6 269/9/6
f 269/9/6 265/9/6 270/9/6
f 264/9/6 269/9/6 271/9/6
f 271/9/6 269/9/6 272/9/6
f 273/9/6 274/9/6 277/9/6
f 277/9/6 274/9/6 278/9/6
f 278/9/6 274/9/6 279/9/6
f 279/9/6 274/9/6 280/9/6
f 275/9/6 276/9/6 281/9/6
f 281/9/6 276/9/6 282/9/6
f 278/9/6 279/9/6 283/9/6
f 283/9/6 279/9/6 284/9/6
f 282/9/6 276/9/6 285/9/6
f 285/9/6 276/9/6 286/9/6
f 287/9/6 288/9/6 289/9/6
f 289/9/6 288/9/6 290/9/6
