# MagicaVoxel @ Ephtracy

# group
o 

# material
mtllib BookshelvesNormal.mtl
usemtl palette

# normals
vn -1 0 0
vn 1 0 0
vn 0 0 1
vn 0 0 -1
vn 0 -1 0
vn 0 1 0

# texcoords
vt 0.0175781 0.5
vt 0.138672 0.5
vt 0.166016 0.5
vt 0.185547 0.5
vt 0.279297 0.5
vt 0.349609 0.5
vt 0.447266 0.5
vt 0.455078 0.5
vt 0.466797 0.5
vt 0.513672 0.5
vt 0.537109 0.5
vt 0.580078 0.5
vt 0.583984 0.5
vt 0.701172 0.5
vt 0.705078 0.5
vt 0.740234 0.5
vt 0.794922 0.5
vt 0.798828 0.5
vt 0.810547 0.5
vt 0.822266 0.5
vt 0.826172 0.5
vt 0.841797 0.5
vt 0.861328 0.5
vt 0.884766 0.5

# verts
v -2 0 -1.3
v -2 0 -2
v -2 4 -1.3
v -2 4 -2
v -1.4 1.6 -1.4
v -1.4 1.6 -1.5
v -1.4 2.6 -1.4
v -1.4 2.6 -1.5
v -1 0.4 -1.4
v -1 0.4 -1.5
v -1 1.4 -1.4
v -1 1.4 -1.5
v -0.6 2.8 -1.4
v -0.6 2.8 -1.5
v -0.6 3.8 -1.4
v -0.6 3.8 -1.5
v -0.2 2.8 -1.3
v -0.2 2.8 -1.4
v -0.2 3.8 -1.3
v -0.2 3.8 -1.4
v 0.2 0.4 -1.4
v 0.2 0.4 -1.5
v 0.2 1.4 -1.4
v 0.2 1.4 -1.5
v 1 2.8 -1.3
v 1 2.8 -1.5
v 1 3.8 -1.3
v 1 3.8 -1.5
v 1.4 0.4 -1.4
v 1.4 0.4 -1.5
v 1.4 1.4 -1.4
v 1.4 1.4 -1.5
v 1.4 1.6 -1.4
v 1.4 1.6 -1.5
v 1.4 2.6 -1.4
v 1.4 2.6 -1.5
v 1.8 0.4 -1.3
v 1.8 0.4 -1.4
v 1.8 1.4 -1.3
v 1.8 1.4 -1.4
v 1.8 1.6 -1.3
v 1.8 1.6 -1.4
v 1.8 2.6 -1.3
v 1.8 2.6 -1.4
v -1.8 0.4 -1.3
v -1.8 0.4 -1.4
v -1.8 1.4 -1.3
v -1.8 1.4 -1.4
v -1.8 1.6 -1.3
v -1.8 1.6 -1.5
v -1.8 2.6 -1.3
v -1.8 2.6 -1.5
v -1.4 0.4 -1.4
v -1.4 0.4 -1.5
v -1.4 1.4 -1.4
v -1.4 1.4 -1.5
v -1.4 2.8 -1.3
v -1.4 2.8 -1.4
v -1.4 3.8 -1.3
v -1.4 3.8 -1.4
v -1 2.8 -1.4
v -1 2.8 -1.5
v -1 3.8 -1.4
v -1 3.8 -1.5
v -0.6 0.4 -1.4
v -0.6 0.4 -1.5
v -0.6 1.4 -1.4
v -0.6 1.4 -1.5
v -0.2 1.6 -1.4
v -0.2 1.6 -1.5
v -0.2 2.6 -1.4
v -0.2 2.6 -1.5
v 0.2 2.8 -1.3
v 0.2 2.8 -1.4
v 0.2 3.8 -1.3
v 0.2 3.8 -1.4
v 0.6 2.8 -1.4
v 0.6 2.8 -1.5
v 0.6 3.8 -1.4
v 0.6 3.8 -1.5
v 1 0.4 -1.4
v 1 0.4 -1.5
v 1 1.4 -1.4
v 1 1.4 -1.5
v 2 0 -1.3
v 2 0 -2
v 2 4 -1.3
v 2 4 -2
v -2 0 -1.3
v -2 4 -1.3
v -1.8 0.4 -1.3
v -1.8 1.4 -1.3
v -1.8 1.6 -1.3
v -1.8 2.6 -1.3
v -1.8 2.8 -1.3
v -1.8 3.8 -1.3
v -1.4 2.8 -1.3
v -1.4 3.8 -1.3
v -0.2 2.8 -1.3
v -0.2 3.8 -1.3
v 0.2 2.8 -1.3
v 0.2 3.8 -1.3
v 1 2.8 -1.3
v 1 3.8 -1.3
v 1.4 2.8 -1.3
v 1.4 3.8 -1.3
v 1.8 0.4 -1.3
v 1.8 1.4 -1.3
v 1.8 1.6 -1.3
v 1.8 2.6 -1.3
v 1.8 2.8 -1.3
v 1.8 3.8 -1.3
v 2 0 -1.3
v 2 4 -1.3
v -1.8 0.4 -1.4
v -1.8 1.4 -1.4
v -1.4 0.4 -1.4
v -1.4 1.4 -1.4
v -1.4 1.6 -1.4
v -1.4 2.6 -1.4
v -1.4 2.8 -1.4
v -1.4 3.8 -1.4
v -1 0.4 -1.4
v -1 1.4 -1.4
v -1 1.6 -1.4
v -1 2.6 -1.4
v -1 2.8 -1.4
v -1 3.8 -1.4
v -0.6 0.4 -1.4
v -0.6 1.4 -1.4
v -0.6 1.6 -1.4
v -0.6 2.6 -1.4
v -0.6 2.8 -1.4
v -0.6 3.8 -1.4
v -0.2 1.6 -1.4
v -0.2 2.6 -1.4
v -0.2 2.8 -1.4
v -0.2 3.8 -1.4
v 0.2 0.4 -1.4
v 0.2 1.4 -1.4
v 0.2 2.8 -1.4
v 0.2 3.8 -1.4
v 0.6 0.4 -1.4
v 0.6 1.4 -1.4
v 0.6 2.8 -1.4
v 0.6 3.8 -1.4
v 1 0.4 -1.4
v 1 1.4 -1.4
v 1.4 0.4 -1.4
v 1.4 1.4 -1.4
v 1.4 1.6 -1.4
v 1.4 2.6 -1.4
v 1.8 0.4 -1.4
v 1.8 1.4 -1.4
v 1.8 1.6 -1.4
v 1.8 2.6 -1.4
v -1.8 1.6 -1.5
v -1.8 2.6 -1.5
v -1.4 0.4 -1.5
v -1.4 1.4 -1.5
v -1.4 1.6 -1.5
v -1.4 2.6 -1.5
v -1 0.4 -1.5
v -1 1.4 -1.5
v -1 2.8 -1.5
v -1 3.8 -1.5
v -0.6 0.4 -1.5
v -0.6 1.4 -1.5
v -0.6 2.8 -1.5
v -0.6 3.8 -1.5
v -0.2 0.4 -1.5
v -0.2 1.4 -1.5
v -0.2 1.6 -1.5
v -0.2 2.6 -1.5
v 0.2 0.4 -1.5
v 0.2 1.4 -1.5
v 0.2 1.6 -1.5
v 0.2 2.6 -1.5
v 0.6 1.6 -1.5
v 0.6 2.6 -1.5
v 0.6 2.8 -1.5
v 0.6 3.8 -1.5
v 1 0.4 -1.5
v 1 1.4 -1.5
v 1 1.6 -1.5
v 1 2.6 -1.5
v 1 2.8 -1.5
v 1 3.8 -1.5
v 1.4 0.4 -1.5
v 1.4 1.4 -1.5
v 1.4 1.6 -1.5
v 1.4 2.6 -1.5
v -2 0 -2
v -2 4 -2
v 2 0 -2
v 2 4 -2
v -2 0 -1.3
v 2 0 -1.3
v -2 0 -2
v 2 0 -2
v -1.8 1.4 -1.3
v 1.8 1.4 -1.3
v -1.8 1.4 -1.4
v -1.4 1.4 -1.4
v -1 1.4 -1.4
v -0.6 1.4 -1.4
v 0.2 1.4 -1.4
v 0.6 1.4 -1.4
v 1 1.4 -1.4
v 1.4 1.4 -1.4
v 1.8 1.4 -1.4
v -1.4 1.4 -1.5
v -1 1.4 -1.5
v -0.6 1.4 -1.5
v -0.2 1.4 -1.5
v 0.2 1.4 -1.5
v 1 1.4 -1.5
v 1.4 1.4 -1.5
v -1.8 2.6 -1.3
v 1.8 2.6 -1.3
v -1.4 2.6 -1.4
v -1 2.6 -1.4
v -0.6 2.6 -1.4
v -0.2 2.6 -1.4
v 1.4 2.6 -1.4
v 1.8 2.6 -1.4
v -1.8 2.6 -1.5
v -1.4 2.6 -1.5
v -0.2 2.6 -1.5
v 0.2 2.6 -1.5
v 0.6 2.6 -1.5
v 1 2.6 -1.5
v 1.4 2.6 -1.5
v -1.4 3.8 -1.3
v -0.2 3.8 -1.3
v 0.2 3.8 -1.3
v 1 3.8 -1.3
v -1.4 3.8 -1.4
v -1 3.8 -1.4
v -0.6 3.8 -1.4
v -0.2 3.8 -1.4
v 0.2 3.8 -1.4
v 0.6 3.8 -1.4
v -1 3.8 -1.5
v -0.6 3.8 -1.5
v 0.6 3.8 -1.5
v 1 3.8 -1.5
v -1.8 0.4 -1.3
v 1.8 0.4 -1.3
v -1.8 0.4 -1.4
v -1.4 0.4 -1.4
v -1 0.4 -1.4
v -0.6 0.4 -1.4
v 0.2 0.4 -1.4
v 0.6 0.4 -1.4
v 1 0.4 -1.4
v 1.4 0.4 -1.4
v 1.8 0.4 -1.4
v -1.4 0.4 -1.5
v -1 0.4 -1.5
v -0.6 0.4 -1.5
v -0.2 0.4 -1.5
v 0.2 0.4 -1.5
v 1 0.4 -1.5
v 1.4 0.4 -1.5
v -1.8 1.6 -1.3
v 1.8 1.6 -1.3
v -1.4 1.6 -1.4
v -1 1.6 -1.4
v -0.6 1.6 -1.4
v -0.2 1.6 -1.4
v 1.4 1.6 -1.4
v 1.8 1.6 -1.4
v -1.8 1.6 -1.5
v -1.4 1.6 -1.5
v -0.2 1.6 -1.5
v 0.2 1.6 -1.5
v 0.6 1.6 -1.5
v 1 1.6 -1.5
v 1.4 1.6 -1.5
v -1.4 2.8 -1.3
v -0.2 2.8 -1.3
v 0.2 2.8 -1.3
v 1 2.8 -1.3
v -1.4 2.8 -1.4
v -1 2.8 -1.4
v -0.6 2.8 -1.4
v -0.2 2.8 -1.4
v 0.2 2.8 -1.4
v 0.6 2.8 -1.4
v -1 2.8 -1.5
v -0.6 2.8 -1.5
v 0.6 2.8 -1.5
v 1 2.8 -1.5
v -2 4 -1.3
v 2 4 -1.3
v -2 4 -2
v 2 4 -2

# faces
f 3/11/1 2/11/1 1/11/1
f 4/11/1 2/11/1 3/11/1
f 7/21/1 6/21/1 5/21/1
f 8/21/1 6/21/1 7/21/1
f 11/5/1 10/5/1 9/5/1
f 12/5/1 10/5/1 11/5/1
f 15/18/1 14/18/1 13/18/1
f 16/18/1 14/18/1 15/18/1
f 19/16/1 18/16/1 17/16/1
f 20/16/1 18/16/1 19/16/1
f 23/8/1 22/8/1 21/8/1
f 24/8/1 22/8/1 23/8/1
f 27/9/1 26/9/1 25/9/1
f 28/9/1 26/9/1 27/9/1
f 31/4/1 30/4/1 29/4/1
f 32/4/1 30/4/1 31/4/1
f 35/21/1 34/21/1 33/21/1
f 36/21/1 34/21/1 35/21/1
f 39/11/1 38/11/1 37/11/1
f 40/11/1 38/11/1 39/11/1
f 43/11/1 42/11/1 41/11/1
f 44/11/1 42/11/1 43/11/1
f 45/11/2 46/11/2 47/11/2
f 47/11/2 46/11/2 48/11/2
f 49/11/2 50/11/2 51/11/2
f 51/11/2 50/11/2 52/11/2
f 53/17/2 54/17/2 55/17/2
f 55/17/2 54/17/2 56/17/2
f 57/24/2 58/24/2 59/24/2
f 59/24/2 58/24/2 60/24/2
f 61/22/2 62/22/2 63/22/2
f 63/22/2 62/22/2 64/22/2
f 65/5/2 66/5/2 67/5/2
f 67/5/2 66/5/2 68/5/2
f 69/10/2 70/10/2 71/10/2
f 71/10/2 70/10/2 72/10/2
f 73/16/2 74/16/2 75/16/2
f 75/16/2 74/16/2 76/16/2
f 77/1/2 78/1/2 79/1/2
f 79/1/2 78/1/2 80/1/2
f 81/14/2 82/14/2 83/14/2
f 83/14/2 82/14/2 84/14/2
f 85/11/2 86/11/2 87/11/2
f 87/11/2 86/11/2 88/11/2
f 91/11/3 90/11/3 89/11/3
f 92/11/3 90/11/3 91/11/3
f 93/11/3 90/11/3 92/11/3
f 94/11/3 90/11/3 93/11/3
f 95/11/3 90/11/3 94/11/3
f 96/11/3 90/11/3 95/11/3
f 97/24/3 96/24/3 95/24/3
f 97/11/3 95/11/3 94/11/3
f 98/11/3 90/11/3 96/11/3
f 98/24/3 96/24/3 97/24/3
f 99/11/3 97/11/3 94/11/3
f 100/11/3 90/11/3 98/11/3
f 101/11/3 99/11/3 94/11/3
f 101/16/3 100/16/3 99/16/3
f 102/11/3 90/11/3 100/11/3
f 102/16/3 100/16/3 101/16/3
f 103/11/3 101/11/3 94/11/3
f 104/11/3 90/11/3 102/11/3
f 105/11/3 103/11/3 94/11/3
f 105/9/3 104/9/3 103/9/3
f 106/11/3 90/11/3 104/11/3
f 106/9/3 104/9/3 105/9/3
f 107/11/3 91/11/3 89/11/3
f 108/11/3 93/11/3 92/11/3
f 109/11/3 93/11/3 108/11/3
f 110/11/3 105/11/3 94/11/3
f 111/2/3 106/2/3 105/2/3
f 111/11/3 105/11/3 110/11/3
f 112/11/3 90/11/3 106/11/3
f 112/2/3 106/2/3 111/2/3
f 113/11/3 111/11/3 110/11/3
f 113/11/3 109/11/3 108/11/3
f 113/11/3 112/11/3 111/11/3
f 113/11/3 107/11/3 89/11/3
f 113/11/3 108/11/3 107/11/3
f 113/11/3 110/11/3 109/11/3
f 114/11/3 90/11/3 112/11/3
f 114/11/3 112/11/3 113/11/3
f 117/17/3 116/17/3 115/17/3
f 118/17/3 116/17/3 117/17/3
f 125/21/3 120/21/3 119/21/3
f 126/21/3 120/21/3 125/21/3
f 127/22/3 122/22/3 121/22/3
f 128/22/3 122/22/3 127/22/3
f 129/5/3 124/5/3 123/5/3
f 130/5/3 124/5/3 129/5/3
f 131/23/3 126/23/3 125/23/3
f 132/23/3 126/23/3 131/23/3
f 135/10/3 132/10/3 131/10/3
f 136/10/3 132/10/3 135/10/3
f 137/18/3 134/18/3 133/18/3
f 138/18/3 134/18/3 137/18/3
f 143/8/3 140/8/3 139/8/3
f 144/8/3 140/8/3 143/8/3
f 145/1/3 142/1/3 141/1/3
f 146/1/3 142/1/3 145/1/3
f 147/14/3 144/14/3 143/14/3
f 148/14/3 144/14/3 147/14/3
f 153/4/3 150/4/3 149/4/3
f 154/4/3 150/4/3 153/4/3
f 155/21/3 152/21/3 151/21/3
f 156/21/3 152/21/3 155/21/3
f 161/21/3 158/21/3 157/21/3
f 162/21/3 158/21/3 161/21/3
f 163/19/3 160/19/3 159/19/3
f 164/19/3 160/19/3 163/19/3
f 169/20/3 166/20/3 165/20/3
f 170/20/3 166/20/3 169/20/3
f 171/7/3 168/7/3 167/7/3
f 172/7/3 168/7/3 171/7/3
f 175/13/3 172/13/3 171/13/3
f 176/13/3 172/13/3 175/13/3
f 177/6/3 174/6/3 173/6/3
f 178/6/3 174/6/3 177/6/3
f 179/12/3 178/12/3 177/12/3
f 180/12/3 178/12/3 179/12/3
f 185/15/3 180/15/3 179/15/3
f 186/15/3 180/15/3 185/15/3
f 187/4/3 182/4/3 181/4/3
f 188/4/3 182/4/3 187/4/3
f 189/3/3 184/3/3 183/3/3
f 190/3/3 184/3/3 189/3/3
f 191/21/3 186/21/3 185/21/3
f 192/21/3 186/21/3 191/21/3
f 193/11/4 194/11/4 195/11/4
f 195/11/4 194/11/4 196/11/4
f 199/11/5 198/11/5 197/11/5
f 200/11/5 198/11/5 199/11/5
f 203/11/5 202/11/5 201/11/5
f 204/11/5 202/11/5 203/11/5
f 205/11/5 202/11/5 204/11/5
f 206/11/5 202/11/5 205/11/5
f 207/11/5 202/11/5 206/11/5
f 208/11/5 202/11/5 207/11/5
f 209/11/5 202/11/5 208/11/5
f 210/11/5 202/11/5 209/11/5
f 211/11/5 202/11/5 210/11/5
f 212/11/5 205/11/5 204/11/5
f 213/11/5 205/11/5 212/11/5
f 214/11/5 207/11/5 206/11/5
f 215/11/5 207/11/5 214/11/5
f 216/11/5 207/11/5 215/11/5
f 217/11/5 210/11/5 209/11/5
f 218/11/5 210/11/5 217/11/5
f 221/11/5 220/11/5 219/11/5
f 222/11/5 220/11/5 221/11/5
f 223/11/5 220/11/5 222/11/5
f 224/11/5 220/11/5 223/11/5
f 225/11/5 220/11/5 224/11/5
f 226/11/5 220/11/5 225/11/5
f 227/11/5 221/11/5 219/11/5
f 228/11/5 221/11/5 227/11/5
f 229/11/5 225/11/5 224/11/5
f 230/11/5 225/11/5 229/11/5
f 231/11/5 225/11/5 230/11/5
f 232/11/5 225/11/5 231/11/5
f 233/11/5 225/11/5 232/11/5
f 238/11/5 235/11/5 234/11/5
f 239/11/5 235/11/5 238/11/5
f 240/11/5 235/11/5 239/11/5
f 241/11/5 235/11/5 240/11/5
f 242/11/5 237/11/5 236/11/5
f 243/11/5 237/11/5 242/11/5
f 244/11/5 240/11/5 239/11/5
f 245/11/5 240/11/5 244/11/5
f 246/11/5 237/11/5 243/11/5
f 247/11/5 237/11/5 246/11/5
f 248/11/6 249/11/6 250/11/6
f 250/11/6 249/11/6 251/11/6
f 251/11/6 249/11/6 252/11/6
f 252/11/6 249/11/6 253/11/6
f 253/11/6 249/11/6 254/11/6
f 254/11/6 249/11/6 255/11/6
f 255/11/6 249/11/6 256/11/6
f 256/11/6 249/11/6 257/11/6
f 257/11/6 249/11/6 258/11/6
f 251/11/6 252/11/6 259/11/6
f 259/11/6 252/11/6 260/11/6
f 253/11/6 254/11/6 261/11/6
f 261/11/6 254/11/6 262/11/6
f 262/11/6 254/11/6 263/11/6
f 256/11/6 257/11/6 264/11/6
f 264/11/6 257/11/6 265/11/6
f 266/11/6 267/11/6 268/11/6
f 268/11/6 267/11/6 269/11/6
f 269/11/6 267/11/6 270/11/6
f 270/11/6 267/11/6 271/11/6
f 271/11/6 267/11/6 272/11/6
f 272/11/6 267/11/6 273/11/6
f 266/11/6 268/11/6 274/11/6
f 274/11/6 268/11/6 275/11/6
f 271/11/6 272/11/6 276/11/6
f 276/11/6 272/11/6 277/11/6
f 277/11/6 272/11/6 278/11/6
f 278/11/6 272/11/6 279/11/6
f 279/11/6 272/11/6 280/11/6
f 281/11/6 282/11/6 285/11/6
f 285/11/6 282/11/6 286/11/6
f 286/11/6 282/11/6 287/11/6
f 287/11/6 282/11/6 288/11/6
f 283/11/6 284/11/6 289/11/6
f 289/11/6 284/11/6 290/11/6
f 286/11/6 287/11/6 291/11/6
f 291/11/6 287/11/6 292/11/6
f 290/11/6 284/11/6 293/11/6
f 293/11/6 284/11/6 294/11/6
f 295/11/6 296/11/6 297/11/6
f 297/11/6 296/11/6 298/11/6
