# MagicaVoxel @ Ephtracy

# group
o 

# material
mtllib ChestKeyhole.mtl
usemtl palette

# normals
vn -1 0 0
vn 1 0 0
vn 0 0 1
vn 0 0 -1
vn 0 -1 0
vn 0 1 0

# texcoords
vt 0.0136719 0.5
vt 0.373047 0.5
vt 0.994141 0.5

# verts
v -5.6 -6 4.8
v -5.6 -6 -4.8
v -5.6 -5.6 4.4
v -5.6 -5.6 -4.4
v -5.6 -2.4 4.4
v -5.6 -2.4 -4.4
v -5.6 -2 4.8
v -5.6 -2 -4.8
v -5.2 -5.6 4.4
v -5.2 -5.6 -4.4
v -5.2 -2.4 4.4
v -5.2 -2.4 -4.4
v -5.2 -2 4.4
v -5.2 -2 -4.4
v -5.2 -1.5 4.4
v -5.2 -1.5 -4.4
v -4.8 -1.5 4
v -4.8 -1.5 -4
v -4.8 -0.9 4
v -4.8 -0.9 -4
v -4.4 -0.9 3.6
v -4.4 -0.9 -3.6
v -4.4 -0.6 3.6
v -4.4 -0.6 -3.6
v -0.3 -3.5 4.5
v -0.3 -3.5 4.4
v -0.3 -2.9 4.5
v -0.3 -2.9 4.4
v -0.2 -3.6 4.5
v -0.2 -3.6 4.4
v -0.2 -3.5 4.5
v -0.2 -3.5 4.4
v -0.2 -2.9 4.5
v -0.2 -2.9 4.4
v -0.2 -2.8 4.5
v -0.2 -2.8 4.4
v 5.2 -5.6 4.8
v 5.2 -5.6 4.4
v 5.2 -5.6 -4.4
v 5.2 -5.6 -4.8
v 5.2 -2.4 4.8
v 5.2 -2.4 4.4
v 5.2 -2.4 -4.4
v 5.2 -2.4 -4.8
v -5.2 -5.6 4.8
v -5.2 -5.6 4.4
v -5.2 -5.6 -4.4
v -5.2 -5.6 -4.8
v -5.2 -2.4 4.8
v -5.2 -2.4 4.4
v -5.2 -2.4 -4.4
v -5.2 -2.4 -4.8
v 0.2 -3.6 4.5
v 0.2 -3.6 4.4
v 0.2 -3.5 4.5
v 0.2 -3.5 4.4
v 0.2 -2.9 4.5
v 0.2 -2.9 4.4
v 0.2 -2.8 4.5
v 0.2 -2.8 4.4
v 0.3 -3.5 4.5
v 0.3 -3.5 4.4
v 0.3 -2.9 4.5
v 0.3 -2.9 4.4
v 4.4 -0.9 3.6
v 4.4 -0.9 -3.6
v 4.4 -0.6 3.6
v 4.4 -0.6 -3.6
v 4.8 -1.5 4
v 4.8 -1.5 -4
v 4.8 -0.9 4
v 4.8 -0.9 -4
v 5.2 -5.6 4.4
v 5.2 -5.6 -4.4
v 5.2 -2.4 4.4
v 5.2 -2.4 -4.4
v 5.2 -2 4.4
v 5.2 -2 -4.4
v 5.2 -1.5 4.4
v 5.2 -1.5 -4.4
v 5.6 -6 4.8
v 5.6 -6 -4.8
v 5.6 -5.6 4.4
v 5.6 -5.6 -4.4
v 5.6 -2.4 4.4
v 5.6 -2.4 -4.4
v 5.6 -2 4.8
v 5.6 -2 -4.8
v -5.6 -6 4.8
v -5.6 -2 4.8
v -5.2 -5.6 4.8
v -5.2 -2.4 4.8
v 5.2 -5.6 4.8
v 5.2 -2.4 4.8
v 5.6 -6 4.8
v 5.6 -2 4.8
v -0.3 -3.5 4.5
v -0.3 -2.9 4.5
v -0.2 -3.6 4.5
v -0.2 -3.5 4.5
v -0.2 -3.2 4.5
v -0.2 -2.9 4.5
v -0.2 -2.8 4.5
v -0.0999997 -3.5 4.5
v -0.0999997 -3.2 4.5
v 0.1 -3.5 4.5
v 0.1 -3.2 4.5
v 0.2 -3.6 4.5
v 0.2 -3.5 4.5
v 0.2 -3.2 4.5
v 0.2 -2.9 4.5
v 0.2 -2.8 4.5
v 0.3 -3.5 4.5
v 0.3 -2.9 4.5
v -5.2 -5.6 4.4
v -5.2 -2.4 4.4
v -5.2 -2 4.4
v -5.2 -1.5 4.4
v -0.3 -3.5 4.4
v -0.3 -2.9 4.4
v -0.2 -3.6 4.4
v -0.2 -3.5 4.4
v -0.2 -2.9 4.4
v -0.2 -2.8 4.4
v 0.2 -3.6 4.4
v 0.2 -3.5 4.4
v 0.2 -2.9 4.4
v 0.2 -2.8 4.4
v 0.3 -3.5 4.4
v 0.3 -2.9 4.4
v 5.2 -5.6 4.4
v 5.2 -2.4 4.4
v 5.2 -2 4.4
v 5.2 -1.5 4.4
v -4.8 -1.5 4
v -4.8 -0.9 4
v 4.8 -1.5 4
v 4.8 -0.9 4
v -4.4 -0.9 3.6
v -4.4 -0.6 3.6
v 4.4 -0.9 3.6
v 4.4 -0.6 3.6
v -5.6 -5.6 -4.4
v -5.6 -2.4 -4.4
v -5.2 -5.6 -4.4
v -5.2 -2.4 -4.4
v 5.2 -5.6 -4.4
v 5.2 -2.4 -4.4
v 5.6 -5.6 -4.4
v 5.6 -2.4 -4.4
v -5.6 -5.6 4.4
v -5.6 -2.4 4.4
v -5.2 -5.6 4.4
v -5.2 -2.4 4.4
v 5.2 -5.6 4.4
v 5.2 -2.4 4.4
v 5.6 -5.6 4.4
v 5.6 -2.4 4.4
v -4.4 -0.9 -3.6
v -4.4 -0.6 -3.6
v 4.4 -0.9 -3.6
v 4.4 -0.6 -3.6
v -4.8 -1.5 -4
v -4.8 -0.9 -4
v 4.8 -1.5 -4
v 4.8 -0.9 -4
v -5.2 -5.6 -4.4
v -5.2 -2.4 -4.4
v -5.2 -2 -4.4
v -5.2 -1.5 -4.4
v 5.2 -5.6 -4.4
v 5.2 -2.4 -4.4
v 5.2 -2 -4.4
v 5.2 -1.5 -4.4
v -5.6 -6 -4.8
v -5.6 -2 -4.8
v -5.2 -5.6 -4.8
v -5.2 -2.4 -4.8
v 5.2 -5.6 -4.8
v 5.2 -2.4 -4.8
v 5.6 -6 -4.8
v 5.6 -2 -4.8
v -5.6 -6 4.8
v 5.6 -6 4.8
v -5.2 -6 4.4
v 5.2 -6 4.4
v -5.2 -6 -4.4
v 5.2 -6 -4.4
v -5.6 -6 -4.8
v 5.6 -6 -4.8
v -0.2 -3.6 4.5
v 0.2 -3.6 4.5
v -0.2 -3.6 4.4
v 0.2 -3.6 4.4
v -0.3 -3.5 4.5
v -0.2 -3.5 4.5
v 0.2 -3.5 4.5
v 0.3 -3.5 4.5
v -0.3 -3.5 4.4
v -0.2 -3.5 4.4
v 0.2 -3.5 4.4
v 0.3 -3.5 4.4
v -5.2 -2.4 4.8
v 5.2 -2.4 4.8
v -5.6 -2.4 4.4
v -5.2 -2.4 4.4
v 5.2 -2.4 4.4
v 5.6 -2.4 4.4
v -5.6 -2.4 -4.4
v -5.2 -2.4 -4.4
v 5.2 -2.4 -4.4
v 5.6 -2.4 -4.4
v -5.2 -2.4 -4.8
v 5.2 -2.4 -4.8
v -5.2 -5.6 4.8
v 5.2 -5.6 4.8
v -5.6 -5.6 4.4
v -5.2 -5.6 4.4
v 5.2 -5.6 4.4
v 5.6 -5.6 4.4
v -5.6 -5.6 -4.4
v -5.2 -5.6 -4.4
v 5.2 -5.6 -4.4
v 5.6 -5.6 -4.4
v -5.2 -5.6 -4.8
v 5.2 -5.6 -4.8
v -0.3 -2.9 4.5
v -0.2 -2.9 4.5
v 0.2 -2.9 4.5
v 0.3 -2.9 4.5
v -0.3 -2.9 4.4
v -0.2 -2.9 4.4
v 0.2 -2.9 4.4
v 0.3 -2.9 4.4
v -0.2 -2.8 4.5
v 0.2 -2.8 4.5
v -0.2 -2.8 4.4
v 0.2 -2.8 4.4
v -5.6 -2 4.8
v 5.6 -2 4.8
v -5.2 -2 4.4
v 5.2 -2 4.4
v -5.2 -2 -4.4
v 5.2 -2 -4.4
v -5.6 -2 -4.8
v 5.6 -2 -4.8
v -5.2 -1.5 4.4
v 5.2 -1.5 4.4
v -4.8 -1.5 4
v 4.8 -1.5 4
v -4.8 -1.5 -4
v 4.8 -1.5 -4
v -5.2 -1.5 -4.4
v 5.2 -1.5 -4.4
v -4.8 -0.9 4
v 4.8 -0.9 4
v -4.4 -0.9 3.6
v 4.4 -0.9 3.6
v -4.4 -0.9 -3.6
v 4.4 -0.9 -3.6
v -4.8 -0.9 -4
v 4.8 -0.9 -4
v -4.4 -0.6 3.6
v 4.4 -0.6 3.6
v -4.4 -0.6 -3.6
v 4.4 -0.6 -3.6

# faces
f 3/1/1 2/1/1 1/1/1
f 4/1/1 2/1/1 3/1/1
f 5/1/1 3/1/1 1/1/1
f 6/1/1 2/1/1 4/1/1
f 7/1/1 5/1/1 1/1/1
f 7/1/1 6/1/1 5/1/1
f 8/1/1 2/1/1 6/1/1
f 8/1/1 6/1/1 7/1/1
f 11/2/1 10/2/1 9/2/1
f 12/2/1 10/2/1 11/2/1
f 15/2/1 14/2/1 13/2/1
f 16/2/1 14/2/1 15/2/1
f 19/2/1 18/2/1 17/2/1
f 20/2/1 18/2/1 19/2/1
f 23/2/1 22/2/1 21/2/1
f 24/2/1 22/2/1 23/2/1
f 27/1/1 26/1/1 25/1/1
f 28/1/1 26/1/1 27/1/1
f 31/1/1 30/1/1 29/1/1
f 32/1/1 30/1/1 31/1/1
f 35/1/1 34/1/1 33/1/1
f 36/1/1 34/1/1 35/1/1
f 41/1/1 38/1/1 37/1/1
f 42/1/1 38/1/1 41/1/1
f 43/1/1 40/1/1 39/1/1
f 44/1/1 40/1/1 43/1/1
f 45/1/2 46/1/2 49/1/2
f 49/1/2 46/1/2 50/1/2
f 47/1/2 48/1/2 51/1/2
f 51/1/2 48/1/2 52/1/2
f 53/1/2 54/1/2 55/1/2
f 55/1/2 54/1/2 56/1/2
f 57/1/2 58/1/2 59/1/2
f 59/1/2 58/1/2 60/1/2
f 61/1/2 62/1/2 63/1/2
f 63/1/2 62/1/2 64/1/2
f 65/2/2 66/2/2 67/2/2
f 67/2/2 66/2/2 68/2/2
f 69/2/2 70/2/2 71/2/2
f 71/2/2 70/2/2 72/2/2
f 73/2/2 74/2/2 75/2/2
f 75/2/2 74/2/2 76/2/2
f 77/2/2 78/2/2 79/2/2
f 79/2/2 78/2/2 80/2/2
f 81/1/2 82/1/2 83/1/2
f 83/1/2 82/1/2 84/1/2
f 81/1/2 83/1/2 85/1/2
f 84/1/2 82/1/2 86/1/2
f 81/1/2 85/1/2 87/1/2
f 85/1/2 86/1/2 87/1/2
f 86/1/2 82/1/2 88/1/2
f 87/1/2 86/1/2 88/1/2
f 91/1/3 90/1/3 89/1/3
f 92/1/3 90/1/3 91/1/3
f 93/1/3 91/1/3 89/1/3
f 94/1/3 90/1/3 92/1/3
f 95/1/3 93/1/3 89/1/3
f 95/1/3 94/1/3 93/1/3
f 96/1/3 90/1/3 94/1/3
f 96/1/3 94/1/3 95/1/3
f 100/1/3 98/1/3 97/1/3
f 101/1/3 98/1/3 100/1/3
f 102/1/3 98/1/3 101/1/3
f 104/1/3 100/1/3 99/1/3
f 104/1/3 101/1/3 100/1/3
f 105/3/3 102/3/3 101/3/3
f 105/1/3 101/1/3 104/1/3
f 106/1/3 104/1/3 99/1/3
f 106/3/3 105/3/3 104/3/3
f 107/3/3 102/3/3 105/3/3
f 107/3/3 105/3/3 106/3/3
f 108/1/3 106/1/3 99/1/3
f 108/1/3 107/1/3 106/1/3
f 109/1/3 107/1/3 108/1/3
f 110/3/3 102/3/3 107/3/3
f 110/1/3 107/1/3 109/1/3
f 111/1/3 103/1/3 102/1/3
f 111/3/3 102/3/3 110/3/3
f 112/1/3 103/1/3 111/1/3
f 113/1/3 110/1/3 109/1/3
f 113/1/3 111/1/3 110/1/3
f 114/1/3 111/1/3 113/1/3
f 119/2/3 116/2/3 115/2/3
f 120/2/3 116/2/3 119/2/3
f 121/2/3 119/2/3 115/2/3
f 122/2/3 119/2/3 121/2/3
f 123/2/3 116/2/3 120/2/3
f 124/2/3 116/2/3 123/2/3
f 125/2/3 121/2/3 115/2/3
f 128/2/3 116/2/3 124/2/3
f 129/2/3 126/2/3 125/2/3
f 130/2/3 128/2/3 127/2/3
f 131/2/3 129/2/3 125/2/3
f 131/2/3 130/2/3 129/2/3
f 131/2/3 125/2/3 115/2/3
f 132/2/3 128/2/3 130/2/3
f 132/2/3 130/2/3 131/2/3
f 132/2/3 116/2/3 128/2/3
f 133/2/3 118/2/3 117/2/3
f 134/2/3 118/2/3 133/2/3
f 137/2/3 136/2/3 135/2/3
f 138/2/3 136/2/3 137/2/3
f 141/2/3 140/2/3 139/2/3
f 142/2/3 140/2/3 141/2/3
f 145/1/3 144/1/3 143/1/3
f 146/1/3 144/1/3 145/1/3
f 149/1/3 148/1/3 147/1/3
f 150/1/3 148/1/3 149/1/3
f 151/1/4 152/1/4 153/1/4
f 153/1/4 152/1/4 154/1/4
f 155/1/4 156/1/4 157/1/4
f 157/1/4 156/1/4 158/1/4
f 159/2/4 160/2/4 161/2/4
f 161/2/4 160/2/4 162/2/4
f 163/2/4 164/2/4 165/2/4
f 165/2/4 164/2/4 166/2/4
f 167/2/4 168/2/4 171/2/4
f 171/2/4 168/2/4 172/2/4
f 169/2/4 170/2/4 173/2/4
f 173/2/4 170/2/4 174/2/4
f 175/1/4 176/1/4 177/1/4
f 177/1/4 176/1/4 178/1/4
f 175/1/4 177/1/4 179/1/4
f 178/1/4 176/1/4 180/1/4
f 175/1/4 179/1/4 181/1/4
f 179/1/4 180/1/4 181/1/4
f 180/1/4 176/1/4 182/1/4
f 181/1/4 180/1/4 182/1/4
f 185/1/5 184/1/5 183/1/5
f 186/1/5 184/1/5 185/1/5
f 187/1/5 185/1/5 183/1/5
f 187/2/5 186/2/5 185/2/5
f 188/1/5 184/1/5 186/1/5
f 188/2/5 186/2/5 187/2/5
f 189/1/5 187/1/5 183/1/5
f 189/1/5 188/1/5 187/1/5
f 190/1/5 184/1/5 188/1/5
f 190/1/5 188/1/5 189/1/5
f 193/1/5 192/1/5 191/1/5
f 194/1/5 192/1/5 193/1/5
f 199/1/5 196/1/5 195/1/5
f 200/1/5 196/1/5 199/1/5
f 201/1/5 198/1/5 197/1/5
f 202/1/5 198/1/5 201/1/5
f 206/1/5 204/1/5 203/1/5
f 207/1/5 204/1/5 206/1/5
f 209/1/5 206/1/5 205/1/5
f 210/1/5 206/1/5 209/1/5
f 211/1/5 208/1/5 207/1/5
f 212/1/5 208/1/5 211/1/5
f 213/1/5 211/1/5 210/1/5
f 214/1/5 211/1/5 213/1/5
f 215/1/6 216/1/6 218/1/6
f 218/1/6 216/1/6 219/1/6
f 217/1/6 218/1/6 221/1/6
f 221/1/6 218/1/6 222/1/6
f 219/1/6 220/1/6 223/1/6
f 223/1/6 220/1/6 224/1/6
f 222/1/6 223/1/6 225/1/6
f 225/1/6 223/1/6 226/1/6
f 227/1/6 228/1/6 231/1/6
f 231/1/6 228/1/6 232/1/6
f 229/1/6 230/1/6 233/1/6
f 233/1/6 230/1/6 234/1/6
f 235/1/6 236/1/6 237/1/6
f 237/1/6 236/1/6 238/1/6
f 239/1/6 240/1/6 241/1/6
f 241/1/6 240/1/6 242/1/6
f 239/1/6 241/1/6 243/1/6
f 242/1/6 240/1/6 244/1/6
f 239/1/6 243/1/6 245/1/6
f 243/1/6 244/1/6 245/1/6
f 244/1/6 240/1/6 246/1/6
f 245/1/6 244/1/6 246/1/6
f 247/2/6 248/2/6 249/2/6
f 249/2/6 248/2/6 250/2/6
f 247/2/6 249/2/6 251/2/6
f 250/2/6 248/2/6 252/2/6
f 247/2/6 251/2/6 253/2/6
f 251/2/6 252/2/6 253/2/6
f 252/2/6 248/2/6 254/2/6
f 253/2/6 252/2/6 254/2/6
f 255/2/6 256/2/6 257/2/6
f 257/2/6 256/2/6 258/2/6
f 255/2/6 257/2/6 259/2/6
f 258/2/6 256/2/6 260/2/6
f 255/2/6 259/2/6 261/2/6
f 259/2/6 260/2/6 261/2/6
f 260/2/6 256/2/6 262/2/6
f 261/2/6 260/2/6 262/2/6
f 263/2/6 264/2/6 265/2/6
f 265/2/6 264/2/6 266/2/6
